<svg width="24" height="24" viewBox="0 0 24 24" fill="none" xmlns="http://www.w3.org/2000/svg">
<path d="M12 24C18.6274 24 24 18.6274 24 12C24 5.37258 18.6274 0 12 0C5.37258 0 0 5.37258 0 12C0 18.6274 5.37258 24 12 24Z" fill="white"/>
<path d="M12.0001 14.2159C13.2236 14.2159 14.2154 13.2241 14.2154 12.0005C14.2154 10.777 13.2236 9.78516 12.0001 9.78516C10.7765 9.78516 9.78467 10.777 9.78467 12.0005C9.78467 13.2241 10.7765 14.2159 12.0001 14.2159Z" fill="#1C5A19"/>
<path d="M12 6.94141C9.22157 6.94141 6.95081 9.21218 6.95081 11.9999C6.95081 13.1814 7.36619 14.2799 8.04927 15.1383C8.27081 14.8522 8.52004 14.6029 8.78773 14.3722C8.2985 13.7076 8.01234 12.8953 8.01234 11.9999C8.01234 9.78448 9.80311 7.99371 12.0093 7.99371C14.2154 7.99371 16.0154 9.78448 16.0154 11.9999C16.0154 12.8953 15.7293 13.7076 15.24 14.3722C15.5077 14.6029 15.757 14.8522 15.9785 15.1383C16.6616 14.2799 17.077 13.1814 17.077 11.9999C17.077 9.21218 14.8062 6.94141 12.0185 6.94141H12Z" fill="#1C5A19"/>
<path d="M12.0001 4.17188C7.68929 4.17188 4.17236 7.6888 4.17236 12.0088C4.17236 14.4365 5.28006 16.5965 7.01544 18.0365L7.05236 17.6488C7.08006 17.3534 7.13544 17.0673 7.21852 16.7903C6.00006 15.5626 5.2339 13.8642 5.2339 12.0088C5.2339 8.27034 8.28005 5.23341 12.0001 5.23341C15.7201 5.23341 18.7754 8.27957 18.7754 12.0088C18.7754 13.8642 18.0185 15.5534 16.7908 16.7811C16.8647 17.058 16.9293 17.3534 16.957 17.6488L16.9939 18.0273C18.7293 16.5965 19.837 14.4273 19.837 12.0088C19.837 7.6888 16.3201 4.17188 12.0001 4.17188Z" fill="#1C5A19"/>
<path d="M12.0001 15.0195C10.3847 15.0195 9.03704 16.238 8.86165 17.8349L8.64934 19.8103C8.63088 19.9672 8.76011 20.1149 8.91704 20.1149H15.074C15.2401 20.1149 15.3601 19.9765 15.3417 19.8103L15.1293 17.8349C14.954 16.2288 13.6063 15.0195 11.9909 15.0195H12.0001Z" fill="#1C5A19"/>
</svg>
