<svg width="24" height="24" viewBox="0 0 24 24" fill="none" xmlns="http://www.w3.org/2000/svg">
<path d="M16.6604 19C19.0571 19 21 17.0566 21 14.659C21 12.2623 19.0571 10.3188 16.6604 10.3188C16.6604 10.3188 16.6814 8.70638 17.9913 6.38561C18.1369 5.9206 17.8775 5.42541 17.4122 5.28073C17.082 5.17688 16.7346 5.27783 16.5103 5.5128C13.4982 8.80732 12.3191 12.6848 12.3191 14.659C12.3191 17.0566 14.262 19 16.6604 19Z" fill="#1C5A19"/>
<path d="M6.74376 19C9.14048 19 11.0834 17.0565 11.0834 14.659C11.0834 12.2623 9.14048 10.3188 6.74376 10.3188C6.74376 10.3188 6.76476 8.70638 8.07472 6.38561C8.22023 5.9206 7.96081 5.42541 7.49554 5.28073C7.1654 5.17688 6.818 5.27783 6.59371 5.5128C3.58156 8.80732 2.40247 12.6848 2.40247 14.659C2.40247 17.0566 4.34537 19 6.74376 19Z" fill="#1C5A19"/>
</svg>
