<svg width="235" height="30" viewBox="0 0 235 30" fill="none" xmlns="http://www.w3.org/2000/svg">
<g clip-path="url(#clip0_378_4992)">
<path d="M56.4999 24.0588C56.0293 24.0588 55.4411 24.0588 54.9411 24.1177C55.0881 21.9706 55.1469 18.5588 55.1469 16.1471V14.9412C53.9705 14.9412 51.9999 14.9412 50.2352 14.9412C48.4705 14.9412 46.4999 14.9412 45.4411 14.9412V16.1471C45.4411 18.5294 45.5293 22 45.6469 24.1177C45.1764 24.1177 44.5881 24.0588 44.0881 24.0588C43.5881 24.0588 43.0293 24.0588 42.5293 24.1177C42.6764 21.9706 42.7352 18.4706 42.7352 16.0588V13.3824C42.7352 10.9706 42.6469 8.00003 42.5293 5.85297C42.9999 5.85297 43.5881 5.91179 44.0881 5.91179C44.5881 5.91179 45.1469 5.91179 45.6469 5.85297C45.4999 8.00003 45.4411 10.1177 45.4411 12.5294V13.5588C46.5587 13.5588 48.6764 13.5588 50.2352 13.5588C51.794 13.5588 54.0587 13.5588 55.1469 13.5588V12.5294C55.1469 10.1177 55.0587 8.00003 54.9411 5.85297C55.4117 5.85297 55.9999 5.91179 56.4999 5.91179C56.9999 5.91179 57.5587 5.91179 58.0587 5.85297C57.9117 8.00003 57.8528 10.9706 57.8528 13.3824V16.0588C57.8528 18.4706 57.9411 21.9706 58.0587 24.1177C57.5881 24.1177 56.9999 24.0588 56.4999 24.0588Z" fill="#1C5A19"/>
<path d="M82.9707 24.1176C82.3825 24.1176 81.6472 24.0588 81.1472 24.0588C80.7354 24.0588 80.206 24.0588 79.6472 24.1176C79.1766 22.3823 78.206 19.647 77.3236 17.2353C76.3825 17.2353 74.9707 17.2353 73.8531 17.2353C72.7354 17.2353 71.706 17.2353 70.6472 17.2353C69.6178 19.7353 68.5883 22.5 68.1472 24.1176C67.8531 24.1176 67.4413 24.0588 67.1472 24.0588C66.7648 24.0588 66.3531 24.0588 66.0589 24.1176L65.9707 24.0588C68.9413 17.8235 71.7648 11.7059 74.3825 5.64703H75.706C77.8825 11.5588 81.6766 21.1176 83.0295 24.0588L82.9413 24.1176H82.9707ZM74.2648 9.02939C73.4707 10.7353 71.9707 14.0882 71.206 16C71.9413 16 73.0589 16 73.9413 16C74.9119 16 76.1178 16 76.9119 16C76.3825 14.5294 75.0884 11.0588 74.2648 9.02939Z" fill="#1C5A19"/>
<path d="M106.382 20.3529C106.382 21.3529 106.441 22.5 106.5 23.2941L106.412 23.4118C105.059 23.8529 102.382 24.4412 99.9998 24.4412C93.6469 24.4412 89.7939 21.1765 89.7939 14.9706C89.7939 9.11765 93.6175 5.5 99.9116 5.5C102.882 5.5 105.353 6.26471 106.206 6.73529C105.941 7.44118 105.735 8.29412 105.529 9.23529L105.059 9.29412C104.382 7.70588 102.647 6.67647 100.059 6.67647C95.8234 6.67647 92.941 9.35294 92.941 14.9706C92.941 19.9706 95.441 23.1176 100.235 23.1176C101.617 23.1176 102.97 22.8824 103.794 22.4412C103.794 20.0588 103.706 17.9118 103.5 16.1176C104.059 16.1176 104.559 16.1765 105.059 16.1765C105.559 16.1765 106.117 16.1765 106.559 16.1176C106.412 17.5882 106.412 19.1471 106.412 20.3529H106.382Z" fill="#1C5A19"/>
<path d="M131.441 16.1764C131.441 17.7941 131.177 19.2941 130.735 20.4117C129.735 22.8823 127.588 24.5294 123.882 24.5294C118.647 24.5294 116.294 22.3823 116.294 16.9706C116.294 15.3235 116.382 13.5882 116.382 12.2647C116.382 9.32351 116.324 7.47057 116.235 5.91174C116.706 5.91174 117.294 5.97057 117.794 5.97057C118.294 5.97057 118.912 5.97057 119.471 5.91174C119.294 7.76468 119.059 11.4412 119.059 15.3235C119.059 20 119.677 23.1764 124.5 23.1764C127.471 23.1764 128.912 21.7059 129.588 19.3823C129.941 18.2647 130 17.0294 130 15.4412C130 11.5294 129.853 8.11763 129.618 5.91174C130.059 5.91174 130.382 5.97057 130.677 5.97057C130.971 5.97057 131.412 5.97057 131.735 5.91174C131.559 8.32351 131.471 11.1764 131.471 16.2059L131.441 16.1764Z" fill="#1C5A19"/>
<path d="M155.559 24.0882C154.971 24.0882 154.441 24.0882 154.03 24.0882C153.53 24.0882 152.471 24.147 151.912 24.2059C149.765 21.1764 146.853 17.4117 144.824 15.0588C144.677 14.9117 144.5 14.8529 144.353 14.8529V16.1176C144.353 18.5 144.441 22.0294 144.559 24.1764C144.118 24.1764 143.53 24.1176 143.03 24.1176C142.53 24.1176 141.971 24.1176 141.471 24.1764C141.618 22.0294 141.677 18.5294 141.677 16.1176V13.4411C141.677 11.0294 141.588 8.05879 141.471 5.91174C141.941 5.91174 142.53 5.97056 143.03 5.97056C143.53 5.97056 144.088 5.97056 144.559 5.91174C144.412 8.05879 144.353 11 144.353 13.4117V14.2353C144.5 14.2353 144.765 14.1764 144.912 14.0882C147.147 12 150.5 8.41174 152.5 5.94115C153.235 5.94115 154.382 5.94115 155 5.88232L155.088 5.97056C152.677 8.08821 149.059 11.647 147.03 13.7647C149.412 16.7647 153 21.1764 155.588 24L155.53 24.1176L155.559 24.0882Z" fill="#1C5A19"/>
<path d="M178.823 16.1764C178.823 17.7941 178.558 19.2941 178.117 20.4117C177.117 22.8823 174.97 24.5294 171.264 24.5294C166.029 24.5294 163.676 22.3823 163.676 16.9706C163.676 15.3235 163.764 13.5882 163.764 12.2647C163.764 9.32351 163.705 7.47057 163.617 5.91174C164.088 5.91174 164.676 5.97057 165.176 5.97057C165.676 5.97057 166.294 5.97057 166.852 5.91174C166.676 7.76468 166.441 11.4412 166.441 15.3235C166.441 20 167.058 23.1764 171.882 23.1764C174.852 23.1764 176.294 21.7059 176.97 19.3823C177.323 18.2647 177.382 17.0294 177.382 15.4412C177.382 11.5294 177.235 8.11763 177 5.91174C177.441 5.91174 177.764 5.97057 178.058 5.97057C178.352 5.97057 178.794 5.97057 179.117 5.91174C178.941 8.32351 178.852 11.1764 178.852 16.2059L178.823 16.1764Z" fill="#1C5A19"/>
<path d="M207.97 24.0588C207.47 24.0588 206.97 24.0588 206.411 24.1177C206.294 20.7647 205.823 14.7647 205.323 10.4118H205.206C203.764 12.853 200.323 19.6471 198.588 23.7941H197.588C196.117 20.1177 193.117 14.2353 191.588 11.3824C191.441 11.0883 191.294 10.8235 191.176 10.5588H191.059C190.5 15.2941 189.911 21.1177 189.911 24.1177C189.617 24.1177 189.176 24.0588 188.882 24.0588C188.617 24.0588 188.176 24.0588 187.823 24.1177C188.794 18.5588 189.882 11.0294 190.353 5.82355H191.911C193.97 10.353 197.411 17.2353 198.853 19.7941H198.97C200.323 17.3235 203.676 10.7941 206.029 5.82355H207.588C208.117 12.5883 209 21.2647 209.559 24.1177C209.088 24.1177 208.47 24.0588 208 24.0588H207.97Z" fill="#1C5A19"/>
<path d="M234.088 16.1764C234.088 17.7941 233.823 19.2941 233.382 20.4117C232.382 22.8823 230.235 24.5294 226.529 24.5294C221.294 24.5294 218.941 22.3823 218.941 16.9706C218.941 15.3235 219.029 13.5882 219.029 12.2647C219.029 9.32351 218.97 7.47057 218.882 5.91174C219.352 5.91174 219.941 5.97057 220.441 5.97057C220.941 5.97057 221.558 5.97057 222.117 5.91174C221.941 7.76468 221.705 11.4412 221.705 15.3235C221.705 20 222.323 23.1764 227.147 23.1764C230.117 23.1764 231.558 21.7059 232.235 19.3823C232.588 18.2647 232.647 17.0294 232.647 15.4412C232.647 11.5294 232.499 8.11763 232.264 5.91174C232.705 5.91174 233.029 5.97057 233.323 5.97057C233.617 5.97057 234.058 5.97057 234.382 5.91174C234.205 8.32351 234.117 11.1764 234.117 16.2059L234.088 16.1764Z" fill="#1C5A19"/>
<path d="M12.7352 11.8529C12.7352 11.8529 12.8234 11.8529 12.8528 11.8529L13.4411 11.9118C13.6469 11.9118 13.8528 12 14.0587 12.1177C14.294 11.9706 14.5587 11.8529 14.8234 11.8529H15.4411C15.8528 11.8529 16.2352 12.0294 16.4999 12.3235C16.5881 12.4118 16.6469 12.5 16.6764 12.6177C16.7646 12.6765 16.8528 12.7059 16.9411 12.7941C17.2646 13.0588 17.4705 13.4412 17.4705 13.8824V14.4118C17.4705 14.6765 17.4116 14.9118 17.2646 15.1177C17.7352 15.5882 17.8234 16.2941 17.4411 16.8529L17.1469 17.3235C16.9116 17.6765 16.5587 17.9118 16.1469 17.9412C16.0881 17.9412 16.0293 17.9412 15.9705 17.9412C15.9116 17.9412 15.8528 17.9412 15.7646 17.9412C15.4411 18.1177 15.0293 18.2353 14.5881 18.2353C14.2352 18.2353 13.9705 18.1765 13.7058 18.0882C13.5587 18.1471 13.4116 18.2059 13.2352 18.2059H12.6469C12.0293 18.2353 11.4999 17.8529 11.3234 17.2647C11.1764 16.7647 11.0881 16.1177 11.0881 15.4706C11.0881 14.7647 11.2058 13.9412 11.2646 13.5294V13.4412C11.2646 13.4412 11.294 13.2647 11.294 13.1765C11.294 12.7941 11.4705 12.4412 11.7646 12.1765C12.0293 11.9412 12.3528 11.8235 12.6764 11.8235M12.6764 10.7647C12.0881 10.7647 11.4999 11 11.0587 11.3824C10.5587 11.8235 10.2646 12.4706 10.2352 13.1471C10.2352 13.1765 10.2352 13.2353 10.2352 13.2647V13.3529C10.1469 13.7941 10.0293 14.6471 10.0293 15.4412C10.0293 16.1765 10.1175 16.9118 10.294 17.5294C10.5881 18.5588 11.5587 19.2941 12.6469 19.2941C12.7058 19.2941 12.7646 19.2941 12.8234 19.2941H13.3234C13.3234 19.2941 13.5881 19.2353 13.7352 19.1765C14.0293 19.2353 14.294 19.2647 14.5881 19.2647C15.0881 19.2647 15.5587 19.1765 15.9999 19C16.0881 19 16.1764 19 16.2646 19C16.9999 18.9118 17.6175 18.5 18.0293 17.9118L18.3234 17.4412C18.8234 16.6765 18.8234 15.7353 18.4411 14.9706C18.4705 14.7941 18.4999 14.5882 18.4999 14.4118V13.8824C18.4999 13.1471 18.1764 12.4412 17.5881 11.9706C17.5293 11.9412 17.4705 11.8824 17.4411 11.8529C17.3822 11.7941 17.3528 11.7059 17.294 11.6471C16.8234 11.1177 16.1469 10.7941 15.4411 10.7941H14.8234C14.5587 10.7941 14.2646 10.8529 13.9999 10.9412C13.8528 10.8824 13.6764 10.8529 13.5293 10.8529L12.9411 10.7941C12.9411 10.7941 12.794 10.7941 12.7352 10.7941L12.6764 10.7647Z" fill="#006934"/>
<path d="M14.7939 7.5294C16.0292 7.5294 17.2351 7.97057 18.1763 8.82351L18.7939 9.38234C19.2351 9.7941 19.6175 10.2647 19.8822 10.7941C20.0292 11 20.2645 11.3823 20.6763 12.1176C21.3528 13.3823 21.441 14.8529 20.9704 16.2059C20.8822 16.5 20.7351 16.7647 20.5881 17.0294C20.5587 18.4117 19.9704 19.7353 18.9704 20.6765L18.3528 21.2353C17.4116 22.1176 16.1763 22.5882 14.8822 22.5882C14.7939 22.5882 14.7057 22.5882 14.6469 22.5882C13.2645 22.5294 11.9998 21.9117 11.0881 20.8823C10.9998 20.7647 10.8822 20.6765 10.7939 20.5588C10.7351 20.5 10.4998 20.2647 9.55865 19.4706C7.64689 17.8235 7.38218 15.9412 7.38218 14.9706C7.38218 13.7647 7.79395 12 9.64689 10.4706L9.76453 10.3823C9.99983 10.1765 10.6175 9.70587 10.8234 9.47057C11.6469 8.44116 12.8234 7.7941 14.1175 7.61763C14.3528 7.58822 14.5587 7.55881 14.7939 7.55881M14.7939 6.49999C14.5292 6.49999 14.2351 6.49999 13.9704 6.55881C12.441 6.76469 11.0292 7.5294 10.0292 8.73528C9.79395 8.94116 9.26453 9.38234 9.08806 9.5294L8.941 9.64704C6.76453 11.4412 6.29395 13.5294 6.29395 14.9412C6.29395 16.1176 6.61747 18.3529 8.85277 20.2647C9.79395 21.0588 9.99983 21.2647 10.0292 21.2941H10.0587C10.0587 21.2941 10.2057 21.4706 10.2939 21.5588C11.3822 22.7941 12.941 23.5294 14.5881 23.6176C14.6763 23.6176 14.7939 23.6176 14.8822 23.6176C16.441 23.6176 17.9116 23.0294 19.0587 21.9706L19.6763 21.4117C20.8234 20.3529 21.5292 18.8529 21.6469 17.2941C21.7939 17.0294 21.8822 16.7941 21.9704 16.5294C22.5292 14.9117 22.4116 13.1176 21.6175 11.5882C21.2351 10.8235 20.9704 10.4412 20.7939 10.2059C20.441 9.58822 19.9998 9.0294 19.4998 8.55881L18.8822 7.99999C17.7645 6.99999 16.2939 6.44116 14.7939 6.44116V6.49999Z" fill="#006934"/>
<path d="M15.1176 3.91177C17.2059 3.91177 19.2353 4.67647 20.8235 6.05883L21.4706 6.64706C23.4118 8.35294 24.4706 10.8529 24.3529 13.4706C24.3529 13.9412 24.2647 14.3824 24.1765 14.8235C24.3529 15.5588 24.4706 16.3235 24.4412 17.0882C24.4118 19.4412 23.4118 21.7059 21.6765 23.2941L21.0294 23.8824C19.4412 25.3529 17.3529 26.1471 15.2059 26.1471C15.0588 26.1471 14.9118 26.1471 14.7941 26.1471C12.5 26.0294 10.3235 25 8.79412 23.2941C8.73529 23.2353 8.70588 23.2059 8.64706 23.1471L8.58824 23.0882C8.58824 23.0882 8.23529 22.7647 7.5 22.1177C4.47059 19.5294 4.05882 16.5 4.05882 14.8824C4.05882 13.2941 4.55882 10.2353 7.61765 7.67647L7.79412 7.52942C7.97059 7.38236 8.35294 7.05883 8.58824 6.85294C9.94118 5.26471 11.8529 4.2353 13.9412 3.94118C14.3235 3.88236 14.7059 3.85294 15.0882 3.85294M15.0882 2.79412C14.6471 2.79412 14.2059 2.82353 13.7941 2.88236C11.5 3.20589 9.38235 4.32353 7.85294 6.08824C7.61765 6.29412 7.29412 6.55883 7.11765 6.67647L6.94118 6.82353C3.52941 9.64706 3 13.0588 3 14.8235C3 16.5882 3.47059 20 6.79412 22.8529C7.5 23.4412 7.76471 23.7059 7.85294 23.7647L7.91177 23.8235C7.91177 23.8235 7.97059 23.8824 8 23.9412C9.70588 25.8529 12.1471 27.0294 14.7353 27.1471C14.8824 27.1471 15.0588 27.1471 15.2059 27.1471C17.6471 27.1471 19.9412 26.2353 21.7353 24.5882L22.3824 24C24.3235 22.2059 25.4706 19.6765 25.5 17.0294C25.5 16.2353 25.4118 15.4706 25.2353 14.7059C25.3235 14.2647 25.3529 13.8529 25.3824 13.4118C25.5 10.5 24.3235 7.70589 22.1471 5.76471L21.5 5.17647C19.7353 3.61765 17.4706 2.76471 15.1176 2.76471L15.0882 2.79412Z" fill="#006934"/>
<path d="M14.3525 1.05882C15.7348 1.05882 17.0877 1.32352 18.3525 1.79411C19.7348 2.05882 21.0878 2.55882 22.3525 3.32352C23.9701 4.32352 25.4701 5.79411 26.323 6.79411C28.9995 9.99999 29.6466 14.2353 28.323 17.9412C27.7054 22.8529 24.3819 26.7941 19.4995 28.2941C18.1466 28.7059 16.5878 28.9412 14.8525 28.9412C11.2642 28.9412 7.52893 27.5 5.02893 24.7647C2.58775 22.5 1.05834 19.2059 1.05834 15.5C1.05834 15.1471 1.05834 14.7941 1.08775 14.4412V13.8823C0.852455 10.4412 2.2054 7.11764 4.73481 4.7647C5.32304 4.20587 5.9701 3.73529 6.67599 3.32352C8.64657 1.85293 11.0289 1.0294 13.5583 1.0294H14.3525M14.3525 -0.0294189H13.5583C10.8819 -0.0294189 8.23481 0.852934 6.11716 2.44117C5.38187 2.88235 4.67598 3.41176 4.05834 3.97058C1.26422 6.55882 -0.206368 10.1765 -0.000485888 13.9412V14.4412C-0.000485888 14.7941 -0.000485888 15.1471 -0.000485888 15.5C-0.000485888 19.4118 1.52893 22.9706 4.29363 25.5294C6.88187 28.3235 10.823 30 14.8525 30C16.676 30 18.323 29.7647 19.7936 29.3235C24.9701 27.7353 28.6172 23.4706 29.323 18.2059C30.7348 14.0882 29.8819 9.47058 27.0878 6.11764C26.176 5.0294 24.6172 3.49999 22.8819 2.41176C21.5878 1.58823 20.1466 1.0294 18.6172 0.735287C17.2348 0.235287 15.7936 -0.0294189 14.323 -0.0294189H14.3525Z" fill="#006934"/>
</g>
<defs>
<clipPath id="clip0_378_4992">
<rect width="234.353" height="30" fill="white"/>
</clipPath>
</defs>
</svg>
