<svg width="44" height="44" viewBox="0 0 44 44" fill="none" xmlns="http://www.w3.org/2000/svg" role="img">
<title>Twitter</title>
<path d="M35.6889 0H8.31111C3.72101 0 0 3.72101 0 8.31111V35.6889C0 40.279 3.72101 44 8.31111 44H35.6889C40.279 44 44 40.279 44 35.6889V8.31111C44 3.72101 40.279 0 35.6889 0Z" fill="transparent"/>
<path d="M14.8133 20.3011C14.0433 20.2766 13.3222 20.0688 12.6989 19.7144C12.65 21.8777 14.2022 23.9066 16.4511 24.3588C15.7911 24.5422 15.07 24.5788 14.3367 24.4444C14.9356 26.3022 16.6589 27.6466 18.7 27.6955C16.7322 29.2355 14.2633 29.92 11.7822 29.6266C13.8478 30.9588 16.3044 31.7288 18.9444 31.7288C27.6222 31.7288 32.5233 24.3955 32.23 17.82C33.1467 17.16 33.9411 16.3411 34.5645 15.4C33.7211 15.7666 32.8289 16.0233 31.8756 16.1333C32.8411 15.5588 33.5867 14.6422 33.9289 13.5422C33.0244 14.08 32.0222 14.4711 30.9589 14.6788C30.1033 13.7744 28.8933 13.2 27.5489 13.2C24.53 13.2 22.3178 16.0111 23.0022 18.9444C19.1156 18.7488 15.6689 16.8911 13.3711 14.0555C12.1489 16.1577 12.7356 18.9077 14.8133 20.3011" fill="currentColor"/>
</svg>
