<svg width="26" height="26" viewBox="0 0 26 26" fill="none" xmlns="http://www.w3.org/2000/svg">
<g clip-path="url(#clip0_321_2504)">
<path d="M13 26C20.1797 26 26 20.1797 26 13C26 5.8203 20.1797 0 13 0C5.8203 0 0 5.8203 0 13C0 20.1797 5.8203 26 13 26Z" fill="white"/>
<path d="M12.9977 15.3996C14.3231 15.3996 15.3977 14.3251 15.3977 12.9996C15.3977 11.6741 14.3231 10.5996 12.9977 10.5996C11.6722 10.5996 10.5977 11.6741 10.5977 12.9996C10.5977 14.3251 11.6722 15.3996 12.9977 15.3996Z" fill="black"/>
<path d="M13.0012 7.51953C9.99125 7.51953 7.53125 9.97953 7.53125 12.9995C7.53125 14.2795 7.98125 15.4695 8.72125 16.3995C8.96125 16.0895 9.23125 15.8195 9.52125 15.5695C8.99125 14.8495 8.68125 13.9695 8.68125 12.9995C8.68125 10.5995 10.6212 8.65953 13.0113 8.65953C15.4013 8.65953 17.3512 10.5995 17.3512 12.9995C17.3512 13.9695 17.0412 14.8495 16.5112 15.5695C16.8012 15.8195 17.0712 16.0895 17.3112 16.3995C18.0512 15.4695 18.5012 14.2795 18.5012 12.9995C18.5012 9.97953 16.0413 7.51953 13.0213 7.51953H13.0012Z" fill="black"/>
<path d="M12.9995 4.51953C8.32953 4.51953 4.51953 8.32953 4.51953 13.0095C4.51953 15.6395 5.71953 17.9795 7.59953 19.5395L7.63953 19.1195C7.66953 18.7995 7.72953 18.4895 7.81953 18.1895C6.49953 16.8595 5.66953 15.0195 5.66953 13.0095C5.66953 8.95953 8.96953 5.66953 12.9995 5.66953C17.0295 5.66953 20.3395 8.96953 20.3395 13.0095C20.3395 15.0195 19.5195 16.8495 18.1895 18.1795C18.2695 18.4795 18.3395 18.7995 18.3695 19.1195L18.4095 19.5295C20.2895 17.9795 21.4895 15.6295 21.4895 13.0095C21.4895 8.32953 17.6795 4.51953 12.9995 4.51953V4.51953Z" fill="black"/>
<path d="M12.9991 16.2695C11.2491 16.2695 9.7891 17.5895 9.5991 19.3195L9.3691 21.4595C9.3491 21.6295 9.4891 21.7895 9.6591 21.7895H16.3291C16.5091 21.7895 16.6391 21.6395 16.6191 21.4595L16.3891 19.3195C16.1991 17.5795 14.7391 16.2695 12.9891 16.2695H12.9991Z" fill="black"/>
</g>
<defs>
<clipPath id="clip0_321_2504">
<rect width="26" height="26" fill="white"/>
</clipPath>
</defs>
</svg>
