<svg width="20" height="20" viewBox="0 0 20 20" xmlns="http://www.w3.org/2000/svg">
<path clip-rule="evenodd" d="M2.83203 3.33398C2.83203 3.05784 3.05589 2.83398 3.33203 2.83398H7.33203C7.60817 2.83398 7.83203 3.05784 7.83203 3.33398C7.83203 3.61013 7.60817 3.83398 7.33203 3.83398H3.83203V16.1673H16.1654V12.6673C16.1654 12.3912 16.3892 12.1673 16.6654 12.1673C16.9415 12.1673 17.1654 12.3912 17.1654 12.6673V16.6673C17.1654 16.9435 16.9415 17.1673 16.6654 17.1673H3.33203C3.05589 17.1673 2.83203 16.9435 2.83203 16.6673V3.33398Z"/>
<path clip-rule="evenodd" d="M11.1641 3.33398C11.1641 3.05784 11.3879 2.83398 11.6641 2.83398H16.6641C16.9402 2.83398 17.1641 3.05784 17.1641 3.33398V8.33398C17.1641 8.61013 16.9402 8.83398 16.6641 8.83398C16.3879 8.83398 16.1641 8.61013 16.1641 8.33398V3.83398H11.6641C11.3879 3.83398 11.1641 3.61013 11.1641 3.33398Z"/>
<path clip-rule="evenodd" d="M16.7002 3.29879C16.8955 3.49405 16.8955 3.81064 16.7002 4.0059L8.76371 11.9424C8.56845 12.1377 8.25186 12.1377 8.0566 11.9424C7.86134 11.7471 7.86134 11.4306 8.0566 11.2353L15.9931 3.29879C16.1884 3.10353 16.505 3.10353 16.7002 3.29879Z"/>
</svg>
