<svg width="44" height="44" viewBox="0 0 44 44" fill="none" xmlns="http://www.w3.org/2000/svg" role="img">
<title>note</title>
<path d="M35.6889 0H8.31111C3.72101 0 0 3.72101 0 8.31111V35.6889C0 40.279 3.72101 44 8.31111 44H35.6889C40.279 44 44 40.279 44 35.6889V8.31111C44 3.72101 40.279 0 35.6889 0Z" fill="transparent"/>
<path d="M17.8324 18.7978C17.4413 18.9078 17.1357 19.2989 17.1357 19.7634C17.1357 20.2278 17.4413 20.6189 17.8324 20.7289C17.9791 20.7778 18.0769 20.79 18.358 20.79H20.7413C20.888 20.79 21.0346 20.79 21.1569 20.7656C21.5235 20.68 21.8413 20.3623 21.9269 19.9956C21.9513 19.8612 21.9513 19.7267 21.9513 19.58V17.1967C21.9513 16.9156 21.9391 16.8178 21.8902 16.6712C21.7802 16.28 21.3891 15.9745 20.9246 15.9745C20.4602 15.9745 20.0691 16.2678 19.9591 16.6712C19.9102 16.8178 19.898 16.9034 19.898 17.1967V18.7489H18.3457C18.0646 18.7489 17.9669 18.7612 17.8202 18.81L17.8324 18.7978Z" fill="currentColor"/>
<path d="M30.9466 12.9922C30.8855 12.4544 30.3966 11.9533 29.8588 11.9044C29.7977 11.9044 29.7121 11.8922 29.541 11.8922H19.1032C18.9932 11.8922 18.871 11.8922 18.7977 11.9044C18.321 11.9533 17.8932 12.1733 17.551 12.5155L13.6643 16.4022C13.3221 16.7444 13.1021 17.1722 13.0532 17.6489C13.0532 17.7344 13.041 17.8444 13.041 17.9544V30.7022C13.041 30.8733 13.041 30.9589 13.0532 31.02C13.1143 31.5578 13.6032 32.0589 14.141 32.1078C14.2021 32.1078 14.2877 32.12 14.4588 32.12H29.5166C29.6877 32.12 29.7732 32.12 29.8343 32.1078C30.3721 32.0467 30.8732 31.5578 30.9221 31.02C30.9221 30.9589 30.9343 30.8733 30.9343 30.7022V13.31C30.9343 13.1389 30.9343 13.0533 30.9221 12.9922H30.9466ZM28.4043 29.5533H15.6077V18.2844C15.6077 18.1378 15.6566 18.0155 15.7543 17.9178L19.0666 14.6055C19.1643 14.5078 19.2866 14.4589 19.4332 14.4589H28.3921V29.5655L28.4043 29.5533Z" fill="currentColor"/>
</svg>
