<svg width="44" height="44" viewBox="0 0 44 44" fill="none" xmlns="http://www.w3.org/2000/svg" role="img">
<title>Instagram</title>
<path d="M35.6889 0H8.31111C3.72101 0 0 3.72101 0 8.31111V35.6889C0 40.279 3.72101 44 8.31111 44H35.6889C40.279 44 44 40.279 44 35.6889V8.31111C44 3.72101 40.279 0 35.6889 0Z" fill="transparent"/>
<path d="M21.9998 13.4199C24.7987 13.4199 25.1287 13.4199 26.2287 13.4811C27.2554 13.5299 27.8054 13.7011 28.1721 13.8355C28.6609 14.0311 29.0154 14.2511 29.3698 14.6177C29.7365 14.9844 29.9687 15.3388 30.1521 15.8155C30.2987 16.1822 30.4698 16.7444 30.5065 17.7588C30.5554 18.8588 30.5676 19.1888 30.5676 21.9877C30.5676 24.7866 30.5676 25.1166 30.5065 26.2166C30.4576 27.2433 30.2865 27.7933 30.1521 28.1599C29.9565 28.6488 29.7365 29.0033 29.3698 29.3577C29.0032 29.7122 28.6487 29.9566 28.1721 30.1399C27.8054 30.2866 27.2432 30.4577 26.2287 30.4944C25.1287 30.5433 24.7987 30.5555 21.9998 30.5555C19.2009 30.5555 18.8709 30.5555 17.7709 30.4944C16.7443 30.4455 16.1943 30.2744 15.8276 30.1399C15.3387 29.9444 14.9843 29.7244 14.6298 29.3577C14.2632 28.9911 14.0309 28.6366 13.8476 28.1599C13.7009 27.7933 13.5298 27.2311 13.4932 26.2166C13.4443 25.1166 13.4321 24.7866 13.4321 21.9877C13.4321 19.1888 13.4321 18.8588 13.4932 17.7588C13.5421 16.7322 13.7132 16.1822 13.8476 15.8155C14.0432 15.3266 14.2632 14.9722 14.6298 14.6177C14.9965 14.2633 15.3509 14.0188 15.8276 13.8355C16.1943 13.6888 16.7565 13.5177 17.7709 13.4811C18.8709 13.4322 19.2009 13.4199 21.9998 13.4199ZM21.9998 11.5377C19.1521 11.5377 18.7976 11.5377 17.6854 11.5988C16.5732 11.6477 15.8154 11.8311 15.1432 12.0877C14.4587 12.3566 13.8721 12.7111 13.2854 13.2977C12.6987 13.8844 12.3443 14.4588 12.0754 15.1555C11.8187 15.8155 11.6354 16.5855 11.5865 17.6977C11.5376 18.8099 11.5254 19.1766 11.5254 22.0122C11.5254 24.8477 11.5254 25.2144 11.5865 26.3266C11.6354 27.4388 11.8187 28.1966 12.0754 28.8688C12.3443 29.5533 12.6987 30.1399 13.2854 30.7266C13.8721 31.3133 14.4465 31.6677 15.1432 31.9366C15.8032 32.1933 16.5732 32.3766 17.6854 32.4255C18.7976 32.4744 19.1643 32.4866 21.9998 32.4866C24.8354 32.4866 25.2021 32.4866 26.3143 32.4255C27.4265 32.3766 28.1843 32.1933 28.8565 31.9366C29.5409 31.6677 30.1276 31.3133 30.7143 30.7266C31.3009 30.1399 31.6554 29.5655 31.9243 28.8688C32.1809 28.2088 32.3643 27.4388 32.4132 26.3266C32.4621 25.2144 32.4743 24.8477 32.4743 22.0122C32.4743 19.1766 32.4743 18.8099 32.4132 17.6977C32.3643 16.5855 32.1809 15.8277 31.9243 15.1555C31.6554 14.4711 31.3009 13.8844 30.7143 13.2977C30.1276 12.7111 29.5532 12.3566 28.8565 12.0877C28.1965 11.8311 27.4265 11.6477 26.3143 11.5988C25.2021 11.5499 24.8354 11.5377 21.9998 11.5377Z" fill="currentColor"/>
<path d="M21.9998 16.6222C19.0298 16.6222 16.6221 19.03 16.6221 22C16.6221 24.97 19.0298 27.3777 21.9998 27.3777C24.9698 27.3777 27.3776 24.97 27.3776 22C27.3776 19.03 24.9698 16.6222 21.9998 16.6222ZM21.9998 25.4833C20.0687 25.4833 18.5043 23.9189 18.5043 21.9877C18.5043 20.0566 20.0687 18.4922 21.9998 18.4922C23.931 18.4922 25.4954 20.0566 25.4954 21.9877C25.4954 23.9189 23.931 25.4833 21.9998 25.4833Z" fill="currentColor"/>
<path d="M27.5851 17.6733C28.2803 17.6733 28.8439 17.1097 28.8439 16.4144C28.8439 15.7191 28.2803 15.1555 27.5851 15.1555C26.8898 15.1555 26.3262 15.7191 26.3262 16.4144C26.3262 17.1097 26.8898 17.6733 27.5851 17.6733Z" fill="currentColor"/>
</svg>
