<svg width="26" height="26" viewBox="0 0 26 26" fill="none" xmlns="http://www.w3.org/2000/svg">
<g clip-path="url(#clip0_769_12327)">
<path d="M13 26C20.1797 26 26 20.1797 26 13C26 5.8203 20.1797 0 13 0C5.8203 0 0 5.8203 0 13C0 20.1797 5.8203 26 13 26Z" fill="white"/>
<path d="M12.9996 15.3996C14.3251 15.3996 15.3996 14.3251 15.3996 12.9996C15.3996 11.6741 14.3251 10.5996 12.9996 10.5996C11.6741 10.5996 10.5996 11.6741 10.5996 12.9996C10.5996 14.3251 11.6741 15.3996 12.9996 15.3996Z" fill="black"/>
<path d="M12.9993 7.51953C9.9893 7.51953 7.5293 9.97953 7.5293 12.9995C7.5293 14.2795 7.9793 15.4695 8.7193 16.3995C8.9593 16.0895 9.2293 15.8195 9.5193 15.5695C8.9893 14.8495 8.6793 13.9695 8.6793 12.9995C8.6793 10.5995 10.6193 8.65953 13.0093 8.65953C15.3993 8.65953 17.3493 10.5995 17.3493 12.9995C17.3493 13.9695 17.0393 14.8495 16.5093 15.5695C16.7993 15.8195 17.0693 16.0895 17.3093 16.3995C18.0493 15.4695 18.4993 14.2795 18.4993 12.9995C18.4993 9.97953 16.0393 7.51953 13.0193 7.51953H12.9993Z" fill="black"/>
<path d="M12.9995 4.51953C8.32953 4.51953 4.51953 8.32953 4.51953 13.0095C4.51953 15.6395 5.71953 17.9795 7.59953 19.5395L7.63953 19.1195C7.66953 18.7995 7.72953 18.4895 7.81953 18.1895C6.49953 16.8595 5.66953 15.0195 5.66953 13.0095C5.66953 8.95953 8.96953 5.66953 12.9995 5.66953C17.0295 5.66953 20.3395 8.96953 20.3395 13.0095C20.3395 15.0195 19.5195 16.8495 18.1895 18.1795C18.2695 18.4795 18.3395 18.7995 18.3695 19.1195L18.4095 19.5295C20.2895 17.9795 21.4895 15.6295 21.4895 13.0095C21.4895 8.32953 17.6795 4.51953 12.9995 4.51953Z" fill="black"/>
<path d="M12.9991 16.2695C11.2491 16.2695 9.7891 17.5895 9.5991 19.3195L9.3691 21.4595C9.3491 21.6295 9.4891 21.7895 9.6591 21.7895H16.3291C16.5091 21.7895 16.6391 21.6395 16.6191 21.4595L16.3891 19.3195C16.1991 17.5795 14.7391 16.2695 12.9891 16.2695H12.9991Z" fill="black"/>
</g>
<defs>
<clipPath id="clip0_769_12327">
<rect width="26" height="26" fill="white"/>
</clipPath>
</defs>
</svg>
