<svg role="img" width="207" height="30" viewBox="0 0 207 30" fill="none" xmlns="http://www.w3.org/2000/svg">
<title>HAGUKUMU</title>
<path d="M54.6925 22.7659C54.2797 22.7659 53.777 22.7871 53.3642 22.8135C53.4807 20.9825 53.5495 18.0296 53.5495 15.9711V14.9391C52.544 14.918 50.8506 14.918 49.3424 14.918C47.8342 14.918 46.1407 14.918 45.2252 14.9391V15.9711C45.2252 18.0085 45.294 20.9825 45.4105 22.8135C44.9977 22.7924 44.495 22.7659 44.0822 22.7659C43.6694 22.7659 43.1667 22.7871 42.7539 22.8135C42.8703 20.9825 42.9391 17.9661 42.9391 15.9023V13.6162C42.9391 11.5576 42.8703 8.99629 42.7539 7.16528C43.1667 7.18645 43.6694 7.21291 44.0822 7.21291C44.495 7.21291 44.9977 7.19174 45.4105 7.16528C45.294 8.99629 45.2252 10.8273 45.2252 12.8859V13.7802C46.1884 13.8014 47.9929 13.8014 49.3424 13.8014C50.6918 13.8014 52.6128 13.8014 53.5495 13.7802V12.8859C53.5495 10.8273 53.4807 8.99629 53.3642 7.16528C53.777 7.18645 54.2797 7.21291 54.6925 7.21291C55.1053 7.21291 55.608 7.19174 56.0208 7.16528C55.9044 8.99629 55.8356 11.5576 55.8356 13.6162V15.9023C55.8356 17.9608 55.9044 20.9825 56.0208 22.8135C55.608 22.7924 55.1053 22.7659 54.6925 22.7659Z" fill="#195505"/>
<path d="M77.1088 22.8136C76.606 22.7924 75.9657 22.766 75.5529 22.766C75.2089 22.766 74.7538 22.7871 74.2723 22.8136C73.8595 21.3265 73.034 18.9716 72.2825 16.9131C71.4834 16.8919 70.2716 16.8919 69.3084 16.8919C68.3453 16.8919 67.4563 16.8919 66.5619 16.9131C65.6676 19.0616 64.7997 21.4218 64.4134 22.8136C64.1594 22.7924 63.8207 22.766 63.5455 22.766C63.228 22.766 62.8576 22.7871 62.6088 22.8136L62.54 22.766C65.0802 17.4105 67.5039 12.1715 69.7477 6.9801H70.8907C72.7641 12.0604 76.0133 20.247 77.1828 22.766L77.114 22.8136H77.1088ZM69.6259 9.86421C68.938 11.3301 67.6573 14.2089 66.9959 15.8335C67.6362 15.8547 68.5993 15.8547 69.3508 15.8547C70.1763 15.8547 71.2241 15.8547 71.8909 15.8335C71.4358 14.574 70.3351 11.6 69.6259 9.86421Z" fill="#195505"/>
<path d="M96.9118 19.5855C96.9118 20.4322 96.9594 21.4165 97.0017 22.1045L96.9329 22.1944C95.7634 22.5808 93.4773 23.0888 91.4187 23.0888C85.9733 23.0888 82.6553 20.2999 82.6553 14.9657C82.6553 9.93302 85.9257 6.84253 91.3499 6.84253C93.8901 6.84253 96.0174 7.50402 96.7477 7.89563C96.5202 8.48832 96.3349 9.2239 96.1762 10.0442L95.7634 10.0918C95.1919 8.72117 93.7048 7.848 91.4611 7.848C87.8255 7.848 85.3542 10.1341 85.3542 14.9657C85.3542 19.268 87.5027 21.9457 91.6198 21.9457C92.8105 21.9457 93.9747 21.7393 94.6838 21.3742C94.6838 19.3368 94.6151 17.4846 94.4298 15.95C94.9114 15.9711 95.3453 15.9976 95.7581 15.9976C96.1709 15.9976 96.6736 15.9764 97.0388 15.95C96.9223 17.2094 96.9012 18.5589 96.9012 19.5855H96.9118Z" fill="#195505"/>
<path d="M118.328 15.9975C118.328 17.3946 118.101 18.6752 117.709 19.6331C116.862 21.7604 115.01 23.1575 111.83 23.1575C107.347 23.1575 105.31 21.3265 105.31 16.659C105.31 15.2408 105.379 13.7537 105.379 12.6107C105.379 10.097 105.331 8.49356 105.241 7.16528C105.654 7.18645 106.157 7.21291 106.569 7.21291C107.003 7.21291 107.533 7.19174 108.009 7.16528C107.85 8.76874 107.665 11.9016 107.665 15.2408C107.665 19.2468 108.189 21.9668 112.332 21.9668C114.873 21.9668 116.132 20.7074 116.704 18.7176C117 17.7545 117.048 16.7066 117.048 15.3307C117.048 11.9651 116.931 9.03863 116.73 7.16528C117.095 7.18645 117.392 7.21291 117.646 7.21291C117.9 7.21291 118.286 7.19174 118.561 7.16528C118.402 9.24502 118.333 11.674 118.333 15.9975H118.328Z" fill="#195505"/>
<path d="M138.903 22.7924C138.4 22.7713 137.94 22.7713 137.601 22.7713C137.167 22.7713 136.251 22.8189 135.791 22.8612C133.939 20.2523 131.446 17.0295 129.705 15.0133C129.568 14.8757 129.43 14.8281 129.293 14.8281V15.9023C129.293 17.9397 129.361 20.9826 129.478 22.8136C129.091 22.7924 128.583 22.766 128.176 22.766C127.768 22.766 127.26 22.7871 126.848 22.8136C126.964 20.9826 127.033 17.9662 127.033 15.9023V13.6162C127.033 11.5576 126.964 8.99634 126.848 7.16533C127.26 7.18649 127.763 7.21295 128.176 7.21295C128.589 7.21295 129.091 7.19179 129.478 7.16533C129.361 8.99634 129.293 11.5365 129.293 13.595V14.3042C129.43 14.3042 129.637 14.2565 129.774 14.1877C131.695 12.4043 134.579 9.31385 136.294 7.20766C136.934 7.20766 137.918 7.18649 138.442 7.16003L138.511 7.22883C136.453 9.03867 133.341 12.1027 131.6 13.9073C133.637 16.495 136.722 20.2682 138.945 22.6919L138.897 22.7818L138.903 22.7924Z" fill="#195505"/>
<path d="M159.055 15.9975C159.055 17.3946 158.827 18.6752 158.436 19.6331C157.589 21.7604 155.737 23.1575 152.556 23.1575C148.074 23.1575 146.037 21.3265 146.037 16.659C146.037 15.2408 146.105 13.7537 146.105 12.6107C146.105 10.097 146.058 8.49356 145.968 7.16528C146.381 7.18645 146.883 7.21291 147.296 7.21291C147.73 7.21291 148.259 7.19174 148.735 7.16528C148.577 8.76874 148.391 11.9016 148.391 15.2408C148.391 19.2468 148.915 21.9668 153.059 21.9668C155.599 21.9668 156.859 20.7074 157.43 18.7176C157.726 17.7545 157.774 16.7066 157.774 15.3307C157.774 11.9651 157.658 9.03863 157.457 7.16528C157.822 7.18645 158.118 7.21291 158.372 7.21291C158.626 7.21291 159.012 7.19174 159.288 7.16528C159.129 9.24502 159.06 11.674 159.06 15.9975H159.055Z" fill="#195505"/>
<path d="M184.022 22.766C183.588 22.766 183.154 22.7872 182.672 22.8136C182.582 19.9295 182.17 14.7857 181.736 11.0549H181.646C180.408 13.1611 177.46 18.9717 175.973 22.5384H175.126C173.867 19.3791 171.284 14.3253 169.977 11.8752C169.84 11.6212 169.723 11.3936 169.633 11.1661H169.543C169.062 15.2408 168.559 20.2259 168.559 22.8083C168.31 22.7871 167.919 22.7607 167.665 22.7607C167.437 22.7607 167.072 22.7819 166.749 22.8083C167.575 18.0244 168.511 11.5735 168.924 7.11243H170.252C172.014 11.002 174.967 16.9025 176.2 19.0987H176.29C177.46 16.9713 180.318 11.3883 182.355 7.11243H183.683C184.138 12.923 184.895 20.3581 185.377 22.8083C184.964 22.7871 184.44 22.7607 184.027 22.7607L184.022 22.766Z" fill="#195505"/>
<path d="M206.455 15.9975C206.455 17.3946 206.228 18.6752 205.836 19.6331C204.989 21.7604 203.137 23.1575 199.957 23.1575C195.474 23.1575 193.437 21.3265 193.437 16.659C193.437 15.2408 193.506 13.7537 193.506 12.6107C193.506 10.097 193.458 8.49356 193.368 7.16528C193.781 7.18645 194.284 7.21291 194.696 7.21291C195.13 7.21291 195.66 7.19174 196.136 7.16528C195.977 8.76874 195.792 11.9016 195.792 15.2408C195.792 19.2468 196.316 21.9668 200.459 21.9668C202.999 21.9668 204.259 20.7074 204.831 18.7176C205.127 17.7545 205.174 16.7066 205.174 15.3307C205.174 11.9651 205.058 9.03863 204.857 7.16528C205.222 7.18645 205.518 7.21291 205.772 7.21291C206.026 7.21291 206.413 7.19174 206.688 7.16528C206.529 9.24502 206.46 11.674 206.46 15.9975H206.455Z" fill="#195505"/>
<path d="M18.9453 8.32956C17.8604 7.37172 16.474 6.84253 15.0346 6.84253C13.3888 6.84253 11.7906 7.53577 10.6899 8.74234C10.3988 9.08102 9.84316 9.52025 9.56269 9.7531C7.78989 11.1819 6.86909 13.087 6.88497 15.0186C6.89555 16.7914 7.69993 18.58 9.34572 20.0247C10.4888 21.0038 10.2506 20.7815 10.7005 21.2472C11.7694 22.4273 13.1136 23.0676 14.4948 23.2052C16.3628 23.3957 18.305 22.6654 19.7232 21.1255C20.6969 20.2258 21.3373 19.0087 21.5436 17.7069C21.6442 16.9978 22.0199 16.368 22.131 15.6589C22.5226 13.8808 21.7924 11.7905 20.7922 10.4146C20.3582 9.58375 19.6544 8.92226 18.9506 8.32427L18.9453 8.32956ZM20.9298 16.1246C20.734 16.6062 20.5858 17.0983 20.5011 17.6116C20.3212 18.6594 19.8026 19.6331 19.0141 20.3634L18.4267 20.9085C17.4053 21.8558 16.0083 22.3215 14.6271 22.1786C13.3729 22.0727 12.2722 21.4165 11.4202 20.5169C11.2349 20.3211 11.055 20.1306 10.8539 19.9507C10.674 19.7919 10.4094 19.5644 10.0178 19.231C8.19208 17.6751 7.93277 15.8706 7.93806 14.9392C7.9169 13.7908 8.42492 11.9493 10.2189 10.5575C10.5364 10.2982 11.1185 9.83777 11.436 9.46733C12.341 8.47245 13.6745 7.87975 15.0346 7.88504C16.2147 7.88504 17.363 8.31898 18.2573 9.10748C18.8765 9.63138 19.5433 10.24 19.9031 10.9702C20.9192 12.3991 21.6389 14.2248 20.9298 16.1246Z" fill="#195505"/>
<path d="M25.0364 13.9866C25.2957 11.0708 24.158 8.20784 21.9565 6.2657C20.152 4.4929 17.7653 3.36572 15.2093 3.39218C12.7062 3.38689 10.2561 4.43469 8.53617 6.23924C8.23453 6.56734 7.93289 6.81606 7.57304 7.10712C4.89532 9.2874 3.56704 12.1927 3.60938 15.0979C3.64642 17.7915 4.86357 20.4851 7.2714 22.586C8.11811 23.3057 8.11282 23.2952 8.41446 23.6021C10.1079 25.5601 12.5792 26.5973 15.077 26.6608C17.4266 26.7243 19.7974 25.9305 21.5596 24.2477C23.7346 22.4696 25.1476 19.8395 25.1582 17.003C25.1899 15.987 24.9094 14.9974 25.0311 13.9813L25.0364 13.9866ZM22.7927 21.4536C22.3693 22.1997 21.4697 22.8983 20.8611 23.4857C19.2894 24.9833 17.1832 25.6871 15.0982 25.6289C12.8861 25.5707 10.6953 24.6499 9.19238 22.9088C8.82194 22.5331 8.89073 22.5966 7.95406 21.7975C5.78966 19.9083 4.69423 17.5058 4.65718 15.0979C4.61485 12.489 5.81612 9.8748 8.23983 7.9115C8.54676 7.67336 8.97541 7.30821 9.25588 6.99599C10.7694 5.37666 12.9708 4.41882 15.2146 4.4294C17.506 4.40294 19.6492 5.42958 21.2739 7.03833C23.2848 8.80583 24.3062 11.4941 23.9781 14.1507C23.9198 14.6375 23.9569 15.135 24.031 15.6219C24.3273 17.5322 23.9569 19.5855 22.798 21.4483L22.7927 21.4536Z" fill="#195505"/>
<path d="M18.7653 14.7539C18.8711 13.7855 18.7388 12.7165 17.9398 12.1185C17.8816 12.0762 17.8498 12.0497 17.8075 11.9915C17.5323 11.6475 17.1407 11.2295 16.5321 11.0654C16.2199 10.9807 15.9182 10.9384 15.6219 10.9384C15.1509 10.9331 14.8281 11.0495 14.4206 11.0707C14.3783 11.0707 14.336 11.0707 14.2989 11.0707C13.9708 11.0442 13.6533 10.9437 13.267 10.949C12.5632 10.949 12.0393 11.1924 11.6635 11.547C11.1079 12.0709 10.875 12.8488 10.8486 13.4785C10.7427 14.2459 10.6316 14.6692 10.6845 16.0345C10.6951 17.0929 10.9967 17.9344 11.5471 18.4688C12.1133 19.0192 12.9495 19.252 14.0131 19.0668C14.0819 19.0562 14.1507 19.0509 14.2248 19.0562C14.4788 19.0774 14.7911 19.1092 15.1086 19.1145C15.7648 19.1092 15.9976 18.9874 16.421 18.871C16.7385 18.8287 17.0243 18.8446 17.5323 18.5641C18.1779 18.1937 18.8288 17.2094 18.977 16.3785C19.0669 15.8123 18.9558 15.4842 18.8341 15.1931C18.7759 15.0555 18.76 14.9074 18.7759 14.7592L18.7653 14.7539ZM17.9451 16.188C17.8392 16.786 17.3312 17.4634 17.0031 17.6539C16.6485 17.8603 16.4527 17.7756 16.1458 17.855C15.7595 17.9555 15.5531 18.0878 14.9498 18.0614C14.4418 18.0402 14.2672 17.9926 14.0449 18.0031C13.7909 18.019 13.0447 18.1989 12.5843 17.9449C12.0181 17.6327 11.7694 17.1776 11.7112 15.9816C11.6477 14.6375 11.817 14.0765 11.8699 13.5844C11.9493 12.8382 12.1398 12.3566 12.6055 12.1397C13.2987 11.8116 13.7644 12.1291 14.3889 12.1132C15.0451 12.0973 15.4367 11.8486 16.2516 12.0656C16.5057 12.1344 16.7279 12.309 16.9872 12.6371C17.146 12.8329 17.4053 13.0023 17.5535 13.2192C17.6858 13.4203 17.744 13.6902 17.7545 14.0554C17.7651 14.5158 17.6858 14.8174 17.6963 15.0344C17.7228 15.4842 18.0403 15.6535 17.9451 16.1827V16.188Z" fill="#195505"/>
<path d="M27.1105 6.09631C26.2108 5.02204 24.6391 3.49267 22.9192 2.4237C21.7444 1.69341 20.4638 1.16422 19.0985 0.851994C17.5585 0.402179 16.0027 -0.0370518 14.3833 -8.18959e-06H13.6001C10.0175 -0.0476356 6.69416 1.68812 4.05877 4.00599C1.26463 6.57787 -0.206531 10.224 0.0210227 14.013C0.0527743 14.5105 0.0051469 15.0026 0.0104388 15.5001C0.0104388 19.3949 1.52923 22.9511 4.29162 25.523C6.88467 28.3277 10.8377 30 14.8702 30C16.68 30 18.3364 29.7671 19.8076 29.3173C24.6762 27.8144 28.1953 23.9619 29.2061 19.1251C29.2643 18.8393 29.3331 18.5588 29.4125 18.2783C30.6243 14.0871 30.0051 9.48844 27.1052 6.09631H27.1105ZM27.9678 17.8603C27.8778 18.1725 27.8037 18.49 27.7349 18.8128C26.8459 23.1205 23.766 26.5232 19.3631 27.8832C18.0401 28.2907 16.5319 28.5024 14.8702 28.5024C11.3934 28.5024 7.78959 27.1159 5.36059 24.4646C3.06389 22.3478 1.61919 19.3103 1.51864 15.8705C1.51335 15.6271 1.52393 15.3784 1.52923 15.1349C1.56627 13.7855 1.31755 12.4043 1.65623 11.0813C2.40769 7.85323 4.30749 5.37131 6.72591 3.86311C8.71039 2.40253 11.0653 1.49232 13.6001 1.51349H14.3833C15.8863 1.47644 17.278 1.90509 18.6857 2.30199C19.8764 2.56658 21.0406 3.02698 22.1255 3.70435C23.6919 4.67807 25.1313 6.08043 25.9568 7.06473C28.624 10.1923 29.0156 14.193 27.9678 17.8603Z" fill="#195505"/>
</svg>
