<svg width="335" height="22" viewBox="0 0 335 22" fill="none" xmlns="http://www.w3.org/2000/svg">
<path d="M2.56564 18.6445C1.94116 18.6445 0.549242 18.6896 0 18.7197C0.120382 16.8011 0.19562 13.6411 0.19562 11.4817V9.08162C0.19562 6.92228 0.120382 4.23626 0 2.3252C0.42886 2.34777 0.955531 2.37034 1.39191 2.37034C1.8283 2.37034 2.34745 2.34777 2.78383 2.3252C2.66345 4.24378 2.59573 6.9298 2.59573 9.08162V11.4817C2.59573 13.6411 2.64088 16.5152 2.69354 17.546C4.70994 17.546 7.10253 17.4482 9.09635 17.1397C9.07378 17.546 9.07378 17.7867 9.07378 17.9523C9.07378 18.0952 9.07378 18.336 9.09635 18.7197C7.15519 18.6971 4.61213 18.6445 2.57316 18.6445H2.56564Z" fill="#1C5A19"/>
<path d="M13.4974 18.6746C13.0685 18.6746 12.5419 18.6971 12.1055 18.7197C12.2259 16.8011 12.3011 13.6411 12.3011 11.4817V9.08162C12.3011 6.92228 12.2259 4.23626 12.1055 2.3252C12.5343 2.34777 13.061 2.37034 13.4974 2.37034C13.9338 2.37034 14.4529 2.34777 14.8893 2.3252C14.7689 4.24378 14.7012 6.9298 14.7012 9.08162V11.4817C14.7012 13.6185 14.7764 16.8011 14.8893 18.7197C14.4604 18.6971 13.9338 18.6746 13.4974 18.6746Z" fill="#1C5A19"/>
<path d="M22.2926 3.49892C22.2474 4.50712 22.1948 6.95237 22.1948 8.81829V9.54058C24.8808 9.54058 26.4382 9.4202 27.326 9.29982C27.3035 9.68353 27.3035 9.90173 27.3035 10.0673C27.3035 10.2102 27.3035 10.451 27.326 10.8347C26.4382 10.6917 24.8808 10.6466 22.1948 10.6466V11.557C22.1948 13.6938 22.27 16.8086 22.3904 18.7197C21.9615 18.6971 21.4048 18.6746 20.9759 18.6746C20.547 18.6746 20.0204 18.6971 19.584 18.7197C19.7044 16.8011 19.7796 13.6411 19.7796 11.4817V9.08162C19.7796 6.92228 19.7044 4.23626 19.584 2.3252C20.1332 2.34777 21.2618 2.40043 22.0292 2.40043C23.6093 2.40043 26.1975 2.37786 27.785 2.3252C27.7624 2.70891 27.7624 2.9271 27.7624 3.09263C27.7624 3.23558 27.7624 3.47635 27.785 3.83749C26.7542 3.6193 24.4519 3.49892 22.3001 3.49892H22.2926Z" fill="#1C5A19"/>
<path d="M33.6544 18.6445C33.0299 18.6445 31.6681 18.6896 31.1113 18.7197C31.2317 16.8011 31.307 13.6411 31.307 11.4817V9.08162C31.307 6.92228 31.2317 4.23626 31.1113 2.3252C31.6606 2.34777 32.7891 2.40043 33.5566 2.40043C35.1366 2.40043 37.7248 2.37786 39.3123 2.3252C39.2898 2.6111 39.2898 2.85187 39.2898 3.07006C39.2898 3.25815 39.2898 3.57416 39.3123 3.83749C38.2816 3.6193 35.9793 3.49892 33.7973 3.49892C33.7522 4.60493 33.6995 6.87713 33.6995 8.77315V9.54058C36.4081 9.54058 37.9656 9.4202 38.8534 9.29982C38.8308 9.56315 38.8308 9.84906 38.8308 10.0673C38.8308 10.2629 38.8308 10.5713 38.8534 10.8347C37.9656 10.6917 36.4081 10.6466 33.6995 10.6466V11.5344C33.6995 13.6712 33.7447 16.5904 33.7973 17.5535C35.8137 17.5535 37.7022 17.4557 39.4327 17.1472C39.4101 17.5535 39.4102 17.7943 39.4102 17.9598C39.4102 18.1027 39.4101 18.3435 39.4327 18.7272C37.9204 18.7046 35.6934 18.652 33.6544 18.652V18.6445Z" fill="#1C5A19"/>
<path d="M53.2457 9.53288H51.8086C50.7779 9.53288 48.7615 9.57802 47.6855 9.67583C47.6855 9.67583 47.7081 9.29211 47.7081 9.05135C47.7081 8.81059 47.6855 8.4043 47.6855 8.4043C48.7615 8.52468 50.7779 8.52468 51.8086 8.52468H53.2457C54.3216 8.52468 56.338 8.47954 57.4139 8.4043C57.4139 8.4043 57.3913 8.81059 57.3913 9.05135C57.3913 9.29211 57.4139 9.65326 57.4139 9.65326C56.338 9.55545 54.2764 9.53288 53.2457 9.53288ZM53.2457 12.9337H51.8086C50.7779 12.9337 48.7615 12.9788 47.6855 13.054C47.6855 13.054 47.7081 12.6929 47.7081 12.4296C47.7081 12.1888 47.6855 11.8051 47.6855 11.8051C48.7615 11.9029 50.7779 11.9255 51.8086 11.9255H53.2457C54.3216 11.9255 56.338 11.8803 57.4139 11.7825C57.4139 11.7825 57.3913 12.1888 57.3913 12.4296C57.3913 12.6703 57.4139 13.0315 57.4139 13.0315C56.338 12.9638 54.2764 12.9337 53.2457 12.9337Z" fill="#1C5A19"/>
<path d="M69.5811 19.0278C68.0688 19.0278 66.2029 18.5989 65.3828 18.1625C65.4581 17.4703 65.6687 16.2891 65.8643 15.4991L66.2706 15.4539C66.7973 17.1769 68.0237 17.9218 69.7918 17.9218C71.447 17.9218 72.9819 17.0339 72.9819 14.9047C72.9819 12.941 71.7856 12.1735 69.7015 11.2857C67.8281 10.4731 65.8192 9.56275 65.8192 6.65854C65.8192 3.75433 68.2645 2.00879 71.2589 2.00879C72.696 2.00879 74.0127 2.39251 74.9532 2.79879C74.7124 3.44585 74.4716 4.25842 74.3287 5.1011L73.8998 5.12367C73.5161 3.87471 72.6509 3.01699 70.973 3.01699C69.2952 3.01699 68.1441 4.00261 68.1441 5.72558C68.1441 7.44854 69.22 8.29121 70.8752 8.96084C73.5612 10.0668 75.3369 10.9998 75.3369 13.9266C75.3369 16.8534 73.012 19.0278 69.5811 19.0278Z" fill="#1C5A19"/>
<path d="M81.6798 18.6445C81.0553 18.6445 79.6935 18.6896 79.1367 18.7197C79.2571 16.8011 79.3323 13.6411 79.3323 11.4817V9.08162C79.3323 6.92228 79.2571 4.23626 79.1367 2.3252C79.686 2.34777 80.8145 2.40043 81.582 2.40043C83.162 2.40043 85.7502 2.37786 87.3377 2.3252C87.3152 2.6111 87.3152 2.85187 87.3152 3.07006C87.3152 3.25815 87.3152 3.57416 87.3377 3.83749C86.307 3.6193 84.0047 3.49892 81.8227 3.49892C81.7776 4.60493 81.7249 6.87713 81.7249 8.77315V9.54058C84.4335 9.54058 85.991 9.4202 86.8788 9.29982C86.8562 9.56315 86.8562 9.84906 86.8562 10.0673C86.8562 10.2629 86.8562 10.5713 86.8788 10.8347C85.991 10.6917 84.4335 10.6466 81.7249 10.6466V11.5344C81.7249 13.6712 81.7701 16.5904 81.8227 17.5535C83.8391 17.5535 85.7276 17.4557 87.4581 17.1472C87.4355 17.5535 87.4355 17.7943 87.4355 17.9598C87.4355 18.1027 87.4355 18.3435 87.4581 18.7272C85.9458 18.7046 83.7187 18.652 81.6798 18.652V18.6445Z" fill="#1C5A19"/>
<path d="M93.6047 18.6445C92.9802 18.6445 91.5883 18.6896 91.0391 18.7197C91.1594 16.8011 91.2347 13.6411 91.2347 11.4817V9.08162C91.2347 6.92228 91.1594 4.23626 91.0391 2.3252C91.4679 2.34777 91.9946 2.37034 92.431 2.37034C92.8674 2.37034 93.3865 2.34777 93.8229 2.3252C93.7025 4.24378 93.6348 6.9298 93.6348 9.08162V11.4817C93.6348 13.6411 93.6799 16.5152 93.7326 17.546C95.749 17.546 98.1416 17.4482 100.135 17.1397C100.113 17.546 100.113 17.7867 100.113 17.9523C100.113 18.0952 100.113 18.336 100.135 18.7197C98.1943 18.6971 95.6512 18.6445 93.6122 18.6445H93.6047Z" fill="#1C5A19"/>
<path d="M105.853 3.49892C105.808 4.50712 105.755 6.95237 105.755 8.81829V9.54058C108.441 9.54058 109.999 9.4202 110.887 9.29982C110.864 9.68353 110.864 9.90173 110.864 10.0673C110.864 10.2102 110.864 10.451 110.887 10.8347C109.999 10.6917 108.441 10.6466 105.755 10.6466V11.557C105.755 13.6938 105.831 16.8086 105.951 18.7197C105.522 18.6971 104.965 18.6746 104.536 18.6746C104.108 18.6746 103.581 18.6971 103.145 18.7197C103.265 16.8011 103.34 13.6411 103.34 11.4817V9.08162C103.34 6.92228 103.265 4.23626 103.145 2.3252C103.694 2.34777 104.822 2.40043 105.59 2.40043C107.17 2.40043 109.758 2.37786 111.346 2.3252C111.323 2.70891 111.323 2.9271 111.323 3.09263C111.323 3.23558 111.323 3.47635 111.346 3.83749C110.315 3.6193 108.012 3.49892 105.861 3.49892H105.853Z" fill="#1C5A19"/>
<path d="M124.325 11.5415L124.159 11.3759L123.941 11.5941C123.173 12.3616 121.714 13.8964 120.992 14.7316C120.751 14.393 120.39 14.0394 120.059 13.7986C120.924 13.0838 122.459 11.6167 123.196 10.8718L123.414 10.6311L123.249 10.4655C122.459 9.67554 120.901 8.18581 120.059 7.47105C120.367 7.25285 120.728 6.89171 120.992 6.56066C121.714 7.4259 123.219 8.96077 123.963 9.69811L124.159 9.89373L124.355 9.69811C125.145 8.9081 126.604 7.37323 127.327 6.53809C127.545 6.89923 127.906 7.23028 128.26 7.47105C127.394 8.19334 125.859 9.65297 125.122 10.4204L124.904 10.6386L125.047 10.7815C125.837 11.5716 127.394 13.0838 128.26 13.7986C127.921 14.0168 127.59 14.3479 127.327 14.709C126.604 13.8663 125.047 12.2637 124.332 11.549L124.325 11.5415Z" fill="#1C5A19"/>
<path d="M141.57 21.1421C138.816 18.6968 137.281 14.7167 137.281 10.571C137.281 6.42538 138.816 2.42268 141.57 0L142.119 0.285907C140.133 3.03964 139.268 6.51567 139.268 10.571C139.268 14.6264 140.133 18.0949 142.119 20.8787L141.57 21.1421Z" fill="#1C5A19"/>
<path d="M167.481 18.7197C167.218 18.6971 166.789 18.6746 166.473 18.6746C166.135 18.6746 165.728 18.6971 165.442 18.7197C164.366 14.9578 162.493 8.96124 161.319 5.70341H161.274C159.957 9.27725 158.137 14.5966 156.79 18.7197C156.572 18.6971 156.12 18.6746 155.782 18.6746C155.443 18.6746 155.037 18.6971 154.773 18.7197C153.622 14.4085 151.109 6.08713 149.785 2.37034L149.853 2.3252C150.5 2.37034 151.049 2.37034 151.41 2.37034C151.771 2.37034 152.253 2.34777 152.704 2.3252C153.592 5.96675 155.315 12.1288 156.542 15.7929H156.587C157.715 12.6254 159.867 5.96675 160.905 2.3252C161.267 2.34777 161.628 2.37034 161.914 2.37034C162.2 2.37034 162.561 2.34777 162.824 2.3252C163.998 6.47084 166.037 12.7984 167.165 15.7929H167.233C168.309 12.678 170.423 5.84636 171.258 2.3252C171.499 2.34777 171.905 2.37034 172.169 2.37034C172.409 2.37034 172.936 2.34777 173.154 2.3252L173.23 2.37034C171.86 5.9216 168.888 14.3559 167.474 18.7197H167.481Z" fill="#1C5A19"/>
<path d="M183.492 19.0809C178.293 19.0809 174.84 15.7479 174.84 10.5263C174.84 5.30475 178.293 1.97168 183.492 1.97168C188.691 1.97168 192.167 5.25208 192.167 10.5263C192.167 15.8005 188.714 19.0809 183.492 19.0809ZM183.492 2.94978C179.994 2.94978 177.616 5.46275 177.616 10.5263C177.616 15.5899 179.986 18.0502 183.492 18.0502C186.998 18.0502 189.391 15.4845 189.391 10.5263C189.391 5.56809 187.021 2.94978 183.492 2.94978Z" fill="#1C5A19"/>
<path d="M208.058 18.6965C207.509 18.674 207.125 18.674 206.764 18.674C206.305 18.674 205.327 18.7191 204.92 18.7718C203.867 17.0714 200.82 12.8731 199.074 10.8868C199.007 10.789 198.909 10.7664 198.668 10.7664V11.5113C198.668 13.648 198.736 16.8081 198.856 18.7266C198.45 18.7041 197.946 18.6815 197.517 18.6815C197.058 18.6815 196.561 18.7041 196.125 18.7266C196.245 16.8081 196.321 13.648 196.321 11.4887V9.08857C196.321 6.92922 196.298 4.2432 196.2 2.33214C197.111 2.35471 197.803 2.37729 198.405 2.37729C198.811 2.37729 199.338 2.35471 199.842 2.33214C200.368 2.33214 200.895 2.30957 201.256 2.30957C203.965 2.30957 206.192 3.19739 206.192 6.04893C206.192 9.18638 203.822 10.315 201.617 10.5557C202.746 12.1132 206.673 16.9284 208.141 18.6063L208.065 18.7041L208.058 18.6965ZM199.932 3.28767C199.616 3.28767 199.165 3.31024 198.781 3.36291C198.683 4.82254 198.661 7.60637 198.661 9.066V9.99896H199.473C201.557 9.99896 203.596 9.44972 203.596 6.35741C203.596 3.72406 201.61 3.28767 199.932 3.28767Z" fill="#1C5A19"/>
<path d="M223.715 18.6964C223.188 18.6739 222.706 18.6739 222.345 18.6739C221.894 18.6739 220.931 18.719 220.449 18.7717C218.508 16.0405 215.897 12.6623 214.077 10.5481C213.934 10.4051 213.791 10.36 213.648 10.36V11.4886C213.648 13.6253 213.723 16.8079 213.843 18.7265C213.437 18.704 212.91 18.6814 212.474 18.6814C212.038 18.6814 211.518 18.704 211.082 18.7265C211.202 16.8079 211.278 13.6479 211.278 11.4886V9.08846C211.278 6.92911 211.202 4.24309 211.082 2.33203C211.511 2.3546 212.038 2.37717 212.474 2.37717C212.91 2.37717 213.429 2.3546 213.843 2.33203C213.723 4.25062 213.648 6.91406 213.648 9.06589V9.81075C213.791 9.81075 214.009 9.76561 214.152 9.69037C216.168 7.81693 219.185 4.58167 220.983 2.37717C221.653 2.37717 222.684 2.3546 223.233 2.33203L223.308 2.40727C221.149 4.30328 217.891 7.51597 216.07 9.40446C218.207 12.1131 221.442 16.0706 223.767 18.6061L223.722 18.704L223.715 18.6964Z" fill="#1C5A19"/>
<path d="M236.528 11.1577H236.31V11.4436C236.31 12.5496 236.355 14.6337 236.43 15.7548C236.43 15.7548 236.047 15.7322 235.783 15.7322C235.52 15.7322 235.136 15.7548 235.136 15.7548C235.212 14.6262 235.234 12.5195 235.234 11.4436V11.1577H234.971C233.963 11.1577 231.976 11.2029 230.9 11.2781C230.9 11.2781 230.923 10.9395 230.923 10.6762C230.923 10.4129 230.9 10.0743 230.9 10.0743C231.976 10.1495 233.948 10.1721 234.971 10.1721H235.234V9.81095C235.234 8.73504 235.189 6.6735 235.114 5.54492C235.114 5.54492 235.497 5.56749 235.761 5.56749C236.024 5.56749 236.408 5.54492 236.408 5.54492C236.333 6.6735 236.31 8.75761 236.31 9.81095V10.1721H236.528C237.582 10.1721 239.545 10.127 240.629 10.0517C240.629 10.0517 240.606 10.3602 240.606 10.6536C240.606 10.9471 240.629 11.2555 240.629 11.2555C239.553 11.1803 237.514 11.1577 236.528 11.1577Z" fill="#1C5A19"/>
<path d="M255.278 3.5212C255.232 4.47673 255.21 5.70312 255.21 6.35017V11.4814C255.21 13.6182 255.278 16.8008 255.398 18.7194C254.969 18.6968 254.442 18.6743 254.006 18.6743C253.57 18.6743 253.05 18.6968 252.614 18.7194C252.734 16.8008 252.81 13.6408 252.81 11.4814V6.35017C252.81 5.68055 252.787 4.45416 252.734 3.5212C251.177 3.5212 248.92 3.68673 247.799 3.85225C247.821 3.49111 247.821 3.28044 247.821 3.06225C247.821 2.84405 247.821 2.65596 247.799 2.31738C249.289 2.39262 251.967 2.41519 253.983 2.41519C256 2.41519 258.731 2.39262 260.213 2.31738C260.191 2.65596 260.191 2.84405 260.191 3.06225C260.191 3.28044 260.191 3.49111 260.213 3.85225C259.107 3.68673 256.858 3.5212 255.278 3.5212Z" fill="#1C5A19"/>
<path d="M270.219 19.0809C265.02 19.0809 261.566 15.7479 261.566 10.5263C261.566 5.30475 265.02 1.97168 270.219 1.97168C275.418 1.97168 278.894 5.25208 278.894 10.5263C278.894 15.8005 275.44 19.0809 270.219 19.0809ZM270.219 2.94978C266.72 2.94978 264.343 5.46275 264.343 10.5263C264.343 15.5899 266.713 18.0502 270.219 18.0502C273.725 18.0502 276.118 15.4845 276.118 10.5263C276.118 5.56809 273.748 2.94978 270.219 2.94978Z" fill="#1C5A19"/>
<path d="M298.495 18.7197C298.232 18.6971 297.803 18.6746 297.487 18.6746C297.148 18.6746 296.742 18.6971 296.456 18.7197C295.38 14.9578 293.507 8.96124 292.333 5.70341H292.288C290.971 9.27725 289.15 14.5966 287.804 18.7197C287.585 18.6971 287.134 18.6746 286.795 18.6746C286.457 18.6746 286.05 18.6971 285.787 18.7197C284.636 14.4085 282.123 6.08713 280.799 2.37034L280.867 2.3252C281.514 2.37034 282.063 2.37034 282.424 2.37034C282.785 2.37034 283.267 2.34777 283.718 2.3252C284.606 5.96675 286.329 12.1288 287.555 15.7929H287.6C288.729 12.6254 290.888 5.96675 291.919 2.3252C292.28 2.34777 292.641 2.37034 292.927 2.37034C293.213 2.37034 293.574 2.34777 293.838 2.3252C295.011 6.47084 297.05 12.7984 298.179 15.7929H298.254C299.33 12.678 301.444 5.84636 302.279 2.3252C302.52 2.34777 302.927 2.37034 303.19 2.37034C303.431 2.37034 303.957 2.34777 304.175 2.3252L304.251 2.37034C302.881 5.9216 299.909 14.3559 298.495 18.7197Z" fill="#1C5A19"/>
<path d="M320.606 10.7587V12.6773C320.606 15.1226 320.651 17.4249 320.704 18.7641H319.53C317.566 16.2512 313.007 10.9544 309.2 6.80118C309.034 6.63566 308.884 6.41746 308.696 6.1767L308.621 6.19927V10.2772C308.621 13.1513 308.763 16.8004 309.049 18.7115C308.741 18.6889 308.335 18.6663 308.064 18.6663C307.793 18.6663 307.394 18.6889 307.078 18.7115C307.274 16.7929 307.394 13.1513 307.394 10.2772V9.08091C307.394 6.06384 307.319 3.30259 307.296 2.2041H308.59C311.397 5.72527 316.114 10.9769 318.898 13.994C319.041 14.1369 319.161 14.31 319.35 14.5207L319.395 14.4981V10.7587C319.395 7.88462 319.252 4.23554 318.966 2.32448C319.35 2.34705 319.688 2.36963 319.974 2.36963C320.237 2.36963 320.644 2.34705 320.907 2.32448C320.711 4.24307 320.598 7.88462 320.598 10.7587H320.606Z" fill="#1C5A19"/>
<path d="M330.711 21.1421L330.162 20.8787C332.148 18.0949 333.014 14.6264 333.014 10.571C333.014 6.51567 332.148 3.04716 330.162 0.285907L330.711 0C333.465 2.42268 335 6.52319 335 10.571C335 14.6189 333.465 18.6968 330.711 21.1421Z" fill="#1C5A19"/>
</svg>
