<svg width="460" height="35" viewBox="0 0 460 35" fill="none" xmlns="http://www.w3.org/2000/svg">
<path d="M12.6752 20.128V30.258C12.6752 32.5396 11.5699 33.2088 8.99433 33.797C8.18312 31.921 7.30092 31.3633 6.53027 30.8867L6.57083 30.5927C7.49359 30.7448 7.97018 30.8157 8.66985 30.8157C9.99821 30.8157 10.2213 30.5622 10.2923 29.822C10.4444 28.0576 10.4444 27.2058 10.4444 20.128H9.3391C9.41008 21.1623 8.16284 21.5983 7.61527 21.5983C6.9156 21.5983 6.84462 21.1522 6.84462 20.7161C6.84462 20.3105 6.95616 18.6171 6.95616 18.2521C6.99672 16.8933 7.0677 14.8957 7.0677 12.9082C7.0677 9.99797 7.02714 9.22732 6.77363 7.56433L9.50134 8.66961H10.201C10.3835 7.34125 10.5356 5.46532 10.6066 4.13695H5.15121C5.15121 16.8527 5.15121 25.2488 0.223084 31.556L0 31.4444C2.61616 25.9586 2.68715 15.7069 2.68715 11.1742C2.68715 8.63919 2.64659 4.09639 2.24098 1.74387L5.18163 3.25476H13.598L14.4092 2.22046C14.6323 1.9264 14.8148 1.74387 14.9568 1.74387C15.1393 1.74387 15.2914 1.89597 15.6564 2.14948L17.1268 3.18378C17.2383 3.25476 17.4918 3.47784 17.4918 3.73135C17.4918 4.09639 17.1572 4.13695 16.9037 4.13695H13.5574C13.1518 4.83663 11.7525 7.38181 10.8297 8.66961H13.8515L14.4802 8.08148C14.7337 7.8584 14.9162 7.67587 15.1393 7.67587C15.3218 7.67587 15.5449 7.82798 15.6868 7.93952L16.8327 8.71017C17.0558 8.86227 17.2789 9.11578 17.2789 9.36928C17.2789 9.77489 16.9848 9.95741 16.2851 10.4036V13.0197C16.2851 14.125 16.4372 18.9923 16.4372 19.9455C16.4372 21.0508 15.697 21.4158 14.7844 21.4158C14.0441 21.4158 14.0137 20.8987 14.0847 20.128H12.6752V20.128ZM9.09573 24.2956C9.46078 24.4781 9.65344 24.5897 9.65344 24.8837C9.65344 25.2488 9.35938 25.4313 8.43662 25.624C6.67223 28.6863 5.97256 29.751 3.38682 32.1847L3.16373 32.1137C4.11691 30.4203 6.40859 25.5226 6.40859 22.9064L9.09573 24.3058V24.2956ZM9.27826 9.55181V13.9019H14.1151V9.55181H9.27826ZM14.1151 19.2458V14.7841H9.27826V19.2458H14.1151ZM13.527 22.8963C15.261 23.5554 17.2789 24.8837 17.2789 26.5772C17.2789 27.4999 16.6907 28.088 15.9201 28.088C14.8858 28.088 14.7438 27.2363 14.5207 26.1411C14.4802 25.989 14.1557 24.2652 13.4154 23.0788L13.527 22.8963V22.8963ZM23.5151 29.0108C23.6976 29.1223 23.8091 29.3454 23.8091 29.5279C23.8091 30.0451 23.4035 30.0451 22.4808 30.0451C18.5768 31.9616 16.7009 32.7322 13.9022 33.4015L13.7906 33.148C16.9544 31.485 19.7226 29.2035 21.0409 27.216L23.5151 29.0209V29.0108ZM25.6749 3.98485C24.8637 5.38419 24.6406 5.71882 22.6126 8.62905H27.5204L28.4736 7.63531C28.6967 7.37167 28.9096 7.27027 29.1023 7.27027C29.2544 7.27027 29.5079 7.42237 29.6904 7.56433L31.0898 8.66961C31.2419 8.82171 31.4548 9.03466 31.4548 9.28816C31.4548 9.76475 31.1202 9.91685 30.4205 10.2413C30.38 11.9753 30.309 13.7803 30.38 18.607C30.38 19.6413 30.603 24.6505 30.603 25.7964C30.603 27.0842 29.4978 27.4492 28.6865 27.4492C27.9463 27.4492 27.8753 26.8611 27.8753 26.3845H21.0916C21.1625 27.4898 19.9559 27.8548 19.3576 27.8548C18.6985 27.8548 18.5464 27.3782 18.5464 26.8915C18.5464 26.638 18.5869 26.0803 18.5869 25.7152C18.6275 23.4641 18.6985 19.4182 18.6985 17.3496C18.6985 10.2312 18.5869 9.16648 18.2523 7.21957L21.3451 8.61891H21.9332C22.1968 7.21957 22.3388 4.89747 22.3794 4.01527C20.5338 4.08625 19.8342 4.19779 19.2156 4.30934L18.4754 2.83901C21.4972 3.09252 23.7077 3.09252 24.1133 3.09252H29.1226L30.2279 1.80471C30.5929 1.39911 30.6335 1.32812 30.816 1.32812C30.9985 1.32812 31.0391 1.36869 31.4751 1.73373L33.0975 3.02153C33.2496 3.13308 33.4626 3.35616 33.4626 3.5691C33.4626 3.97471 33.1279 3.97471 32.915 3.97471H25.6546L25.6749 3.98485ZM21.1017 9.51124V14.0439H27.8855V9.51124H21.1017ZM21.1017 14.9261V19.5399H27.8855V14.9261H21.1017ZM21.1017 20.4119V25.5023H27.8855V20.4119H21.1017ZM25.4518 27.8244C31.1607 28.9297 32.9657 30.8056 32.9657 32.3165C32.9657 33.0567 32.4891 33.6449 31.7489 33.6449C31.0086 33.6449 30.7957 33.4218 29.2443 31.3228C28.9502 30.9172 27.3987 29.2947 25.4518 28.0779V27.8244V27.8244Z" fill="#1C5A19"/>
<path d="M43.3791 8.62928C45.0522 8.62928 46.2589 9.9982 46.2589 11.215C46.2589 11.4482 45.9953 13.0808 45.9547 13.4256C45.8432 14.1861 45.6911 15.3624 45.6911 16.7313C45.6911 22.8458 49.5241 24.5494 50.6598 24.5494C51.5318 24.5494 51.6839 24.2451 53.0528 21.5479C54.6448 18.4754 56.1963 16.0417 58.6299 13.8008C59.7656 12.7361 61.8951 11.0933 64.3997 11.0933C68.2732 11.0933 71.802 14.8249 71.802 17.8568C71.802 19.2967 70.8184 20.1688 69.7131 20.1688C68.0096 20.1688 67.7764 18.4957 67.7054 18.0089C67.4012 15.8491 67.2491 14.8553 66.4176 13.5675C65.8092 12.6144 64.9777 11.9755 63.7203 11.9755C59.5121 11.9755 54.726 20.8583 54.726 23.586C54.726 24.0423 54.8071 24.1944 55.2228 25.0665C55.304 25.2896 55.3749 25.4417 55.3749 25.7459C55.3749 26.6484 54.3508 27.4089 52.4951 27.4089C46.046 27.4089 43.4298 20.3209 43.0546 16.711C42.9735 15.9099 42.7504 12.5332 42.5983 11.8539C42.3347 10.4748 41.5336 10.2517 41.0469 10.0996C41.27 9.6433 41.8074 8.61914 43.3994 8.61914L43.3791 8.62928Z" fill="#1C5A19"/>
<path d="M88.3013 10.374C88.3013 9.9988 88.3824 6.73367 88.3824 6.42946C88.3824 3.69162 87.3988 3.35699 86.0705 3.05279C86.3341 2.70802 86.7904 2.09961 88.1898 2.09961C89.7108 2.09961 92.0633 3.01222 92.0633 4.75633C92.0633 5.21264 91.8402 6.19624 91.6881 6.69311C91.3434 7.94035 90.8161 10.2624 90.8161 12.4629C90.8161 15.1602 92.2965 15.9207 93.0976 15.9207C93.5945 15.9207 93.9697 15.6874 95.0749 15.1196C97.2044 13.9839 97.9953 13.8622 98.5327 13.8622C99.9422 13.8622 100.966 14.9269 100.966 15.9105C100.966 17.4316 99.0296 17.5431 98.3908 17.5431C94.3651 17.6546 91.3738 17.6952 87.6523 20.3519C86.4355 21.224 84.2047 23.0796 84.2047 25.7668C84.2047 28.9102 87.8349 29.4781 91.1405 29.4781C94.8214 29.4781 97.103 28.9508 99.1107 28.4945C99.1918 28.4945 99.8307 28.3424 100.287 28.3424C101.615 28.3424 102.528 29.5896 102.528 30.3096C102.528 31.0701 101.615 31.4047 100.52 31.6379C98.624 32.0537 96.2715 32.0537 94.1015 32.0537C87.3481 32.0537 84.8841 31.2932 83.0994 29.5896C81.842 28.3728 81.7305 27.0546 81.7305 26.365C81.7305 23.7894 83.434 21.8527 84.6508 20.7575C87.2974 18.405 89.9136 17.3809 91.972 16.5899C89.579 15.6063 88.3317 14.0853 88.3317 10.3639L88.3013 10.374Z" fill="#1C5A19"/>
<path d="M123.001 10.374C123.001 9.9988 123.082 6.73367 123.082 6.42946C123.082 3.69162 122.098 3.35699 120.77 3.05279C121.033 2.70802 121.49 2.09961 122.889 2.09961C124.41 2.09961 126.763 3.01222 126.763 4.75633C126.763 5.21264 126.539 6.19624 126.387 6.69311C126.043 7.94035 125.515 10.2624 125.515 12.4629C125.515 15.1602 126.996 15.9207 127.797 15.9207C128.294 15.9207 128.669 15.6874 129.774 15.1196C131.904 13.9839 132.695 13.8622 133.232 13.8622C134.641 13.8622 135.666 14.9269 135.666 15.9105C135.666 17.4316 133.729 17.5431 133.09 17.5431C129.064 17.6546 126.073 17.6952 122.352 20.3519C121.135 21.224 118.904 23.0796 118.904 25.7668C118.904 28.9102 122.534 29.4781 125.84 29.4781C129.521 29.4781 131.802 28.9508 133.81 28.4945C133.891 28.4945 134.53 28.3424 134.986 28.3424C136.315 28.3424 137.227 29.5896 137.227 30.3096C137.227 31.0701 136.315 31.4047 135.219 31.6379C133.323 32.0537 130.971 32.0537 128.801 32.0537C122.047 32.0537 119.583 31.2932 117.799 29.5896C116.541 28.3728 116.43 27.0546 116.43 26.365C116.43 23.7894 118.133 21.8527 119.35 20.7575C121.997 18.405 124.613 17.3809 126.671 16.5899C124.278 15.6063 123.031 14.0853 123.031 10.3639L123.001 10.374Z" fill="#1C5A19"/>
<path d="M162.629 15.9798C164.728 17.1561 166.776 18.3324 168.906 20.6443C169.514 21.3237 171.532 23.7168 171.532 26.4546C171.532 29.7198 168.642 33.4311 163.43 33.4311C159.607 33.4311 156.646 31.2814 156.646 27.2557C156.646 25.8462 156.91 24.5179 157.042 23.6864C155.287 22.8549 151.079 20.7964 151.079 17.6935C151.079 17.1257 151.12 16.1015 153.35 13.9315C154.983 12.3395 155.135 12.1874 155.135 11.8832C155.135 11.4269 152.864 9.18593 148.727 8.31387C150.136 7.17818 151.424 7.17818 151.606 7.17818C154.294 7.17818 158.481 10.0985 158.481 11.8832C158.481 12.9479 157.488 13.0595 156.94 13.1C154.07 13.3637 152.509 16.2131 152.509 17.1257C152.509 18.9104 155.713 20.9587 157.63 21.2629C158.086 19.6303 158.512 17.9572 159.07 16.1725C160.57 11.2342 161.169 8.8513 161.169 7.13762C161.169 3.49729 159.181 2.12837 158.39 1.60108C158.775 1.44898 159.262 1.29688 159.82 1.29688C162.537 1.29688 164.413 5.43407 164.413 7.59392C164.413 8.92229 163.805 10.1695 162.314 13.3231C161.128 15.7466 160.276 18.2918 159.526 20.908C159.789 21.1716 161.098 22.1958 161.361 22.429C161.625 22.6926 162.01 23.078 162.01 23.6458C162.01 23.9906 161.777 24.7105 160.763 24.7105C160.094 24.7105 159.262 24.4875 158.857 24.3353C158.786 24.7511 158.745 25.2885 158.745 25.9679C158.745 29.8719 160.844 31.7782 163.085 31.7782C165.519 31.7782 168.175 29.2026 168.175 25.9375C168.175 23.3213 166.695 21.1513 166.046 20.2489C165.701 19.7925 164.495 18.089 162.548 16.1522L162.629 16.0001V15.9798Z" fill="#1C5A19"/>
<path d="M192.287 16.9545C191.638 19.0738 189.671 25.6852 189.671 26.9324C189.671 27.1555 189.671 27.6118 190.086 28.5245C190.239 28.8996 190.502 29.5486 190.502 29.9339C190.502 31.0696 189.285 31.1508 189.093 31.1508C187.237 31.1508 184.52 27.8146 184.52 22.7243C184.52 19.0839 185.361 15.0177 186.314 10.769C186.466 10.0491 186.984 7.8892 186.984 7.28079C186.984 6.03355 185.929 5.38458 185.169 5.03981C185.513 4.66462 185.899 4.2793 186.73 4.2793C188.058 4.2793 190.381 5.8713 190.381 7.15911C190.381 7.53429 190.188 8.1427 189.965 8.68013C188.525 11.9858 186.517 17.4412 186.517 22.1057C186.517 25.3709 187.43 25.6751 187.612 25.6751C187.957 25.6751 188.484 24.4988 188.565 24.2656C189.214 22.8662 190.877 19.0637 192.023 16.7923L192.287 16.9444V16.9545ZM201.91 7.43289C206.007 7.43289 206.463 7.43289 207.375 7.65597C208.095 7.84864 209.88 8.41649 209.88 9.93751C209.88 10.9211 209.272 10.9617 207.487 11.0732C202.214 11.4484 198.412 17.1472 198.412 20.0675C198.412 21.5075 199.476 25.381 205.094 25.5331C208.734 25.6446 209.12 25.6446 209.606 25.6852C211.543 25.9083 211.543 27.2062 211.543 27.3888C211.543 28.6766 209.718 28.7577 208.237 28.7577C199.588 28.7577 196.749 24.3974 196.749 21.4365C196.749 18.1713 198.827 15.8188 201.971 12.2191C202.234 11.9148 203.147 10.8907 203.147 10.3938C203.147 9.97807 202.924 9.93751 201.018 9.59275C197.57 8.94378 197.195 7.54443 196.85 6.36817C197.712 6.93602 198.472 7.43289 201.89 7.43289H201.91Z" fill="#1C5A19"/>
<path d="M226.532 33.0278C225.355 33.0278 225.061 32.0645 224.686 30.8578C224.463 30.0871 223.398 26.6192 219.859 23.7799L219.971 23.4453C222.547 24.2971 224.057 24.8852 225.832 26.3555C226.461 26.9031 228.337 28.6776 228.337 30.8882C228.337 31.9225 227.677 33.0278 226.532 33.0278V33.0278Z" fill="#1C5A19"/>
<path d="M269.78 6.68237L270.926 5.39457C271.109 5.21205 271.261 5.02953 271.443 5.02953C271.555 5.02953 271.808 5.21205 271.92 5.28303L273.796 6.68237C274.049 6.8649 274.272 7.19952 274.272 7.38205C274.272 7.74709 273.938 8.01074 272.984 8.52789C272.913 10.4038 272.914 11.215 272.914 14.3889C272.914 16.3054 272.914 22.8965 273.066 26.1718C273.106 27.1655 273.248 30.8464 273.248 31.8097C273.248 33.1685 272.214 33.6857 271.403 33.6857C270.48 33.6857 270.186 33.2091 270.186 32.4688C270.186 32.2457 270.257 31.4041 270.257 31.2115H254.154C254.225 32.8744 253.972 34.0101 252.197 34.0101C251.426 34.0101 251.132 33.493 251.132 32.7223C251.132 32.3573 251.173 31.5765 251.173 31.1405C251.396 25.249 251.396 21.9738 251.396 17.1775C251.396 13.9326 251.396 7.77751 250.879 4.90784L254.489 6.67223H259.316C260.198 3.24486 260.573 1.80495 260.35 0L264.325 1.95705C264.73 2.13958 264.801 2.40322 264.801 2.51476C264.801 2.96093 263.99 3.17387 263.25 3.255C261.962 4.65434 260.857 5.91172 260.157 6.68237H269.77H269.78ZM254.124 7.56457V14.683H270.297V7.55443H254.124V7.56457ZM254.124 15.5652V22.3084H270.297V15.5652H254.124V15.5652ZM254.124 23.1906V30.3394H270.297V23.1906H254.124Z" fill="#1C5A19"/>
<path d="M313.739 25.2888C306.63 21.3443 304.856 15.5948 304.379 12.8367C303.68 16.6291 302.169 22.6422 291.927 25.5524L291.887 25.3294C300.688 20.8677 301.722 14.3475 302.057 12.4311H296.196C292.292 22.2366 286.543 25.2888 283.967 26.6172L283.896 26.3636C287.435 23.3013 290.163 19.5799 291.633 16.8522C293.55 13.3132 294.989 8.96311 295.243 7.23928H290.487C288.753 11.4069 286.908 14.6416 283.632 18.2921L283.379 18.14C287.8 10.2915 289.128 3.32518 289.128 2.10836C289.128 1.74331 289.088 1.40868 289.057 1.07406L292.708 2.17934C292.89 2.2199 293.113 2.36186 293.113 2.65592C293.113 2.94999 292.667 3.24406 291.785 3.72064C291.268 5.19097 291.085 5.6777 290.822 6.33681H295.243L296.308 5.30251C296.49 5.15041 296.602 5.00845 296.825 5.00845C297.007 5.00845 297.23 5.19097 297.413 5.34307L299.076 6.89452C299.228 7.04662 299.299 7.14802 299.299 7.34069C299.299 7.78685 298.346 8.1519 297.859 8.33442C297.748 8.51695 297.007 10.474 296.571 11.5387H302.209C302.361 10.2813 302.432 8.78059 302.432 7.56377C302.432 5.79938 302.25 2.66607 301.844 0.972656L305.525 2.07794C305.708 2.1185 306.042 2.30102 306.042 2.59508C306.042 3.00069 305.789 3.14265 304.977 3.54826C304.866 4.47102 304.795 7.08718 304.795 8.19246C304.795 9.52082 304.683 10.5551 304.572 11.5489H310.798L312.491 9.70335C312.714 9.44984 312.897 9.25718 313.079 9.25718C313.232 9.25718 313.445 9.36872 313.739 9.66279L315.726 11.4272C315.909 11.5793 316.061 11.8328 316.061 12.0153C316.061 12.3804 315.726 12.4209 315.503 12.4209H304.927C305.667 15.4021 308.395 20.7156 317.237 22.1453V22.4394C315.209 22.916 314.621 23.8793 313.739 25.2787V25.2888ZM286.249 33.7964C285.295 33.7964 284.586 33.2083 284.586 32.3971C284.586 31.4743 285.174 31.0687 286.208 30.1865C288.013 28.635 288.419 26.8301 288.49 25.8059H288.743C289.037 26.7997 289.331 27.905 289.331 29.1623C289.331 31.1904 288.591 33.8065 286.238 33.8065L286.249 33.7964ZM290.011 18.576C288.865 18.576 288.54 17.4302 288.165 15.9598C287.83 14.7025 287.506 14.378 287.131 14.0028L287.283 13.8203C289.534 14.4489 291.075 15.2196 291.075 17.2882C291.075 18.2414 290.376 18.576 290.011 18.576ZM292.333 13.4958C291.481 13.4958 291.369 13.0902 290.822 11.5793C290.568 10.8796 290.193 10.0684 289.575 9.55124L289.727 9.25718C291.42 9.73377 293.519 10.3219 293.519 12.2384C293.519 12.573 293.367 13.4958 292.343 13.4958H292.333ZM296.014 33.3604C295.162 33.3604 294.462 32.8432 294.462 31.9205C294.462 31.3323 294.827 30.4501 295.415 28.9697C295.567 28.5641 295.75 27.6109 295.75 27.0532C295.75 26.7997 295.709 26.607 295.638 26.2014H295.892C296.368 26.8605 297.808 28.777 297.808 31.0687C297.808 31.7278 297.474 33.3502 296.003 33.3502L296.014 33.3604ZM305.038 33.1069C303.568 33.1069 303.487 31.7785 303.456 30.3792C303.456 29.9736 303.385 27.9455 302.534 26.4042L302.828 26.2927C304.673 27.621 306.62 29.0204 306.62 31.16C306.62 31.9712 306.174 33.117 305.038 33.117V33.1069ZM310.048 9.15578C309.013 9.15578 308.719 8.23302 308.425 7.39139C308.091 6.43821 307.36 4.95774 306.397 4.14653L306.509 3.88289C308.537 4.4406 311.406 5.7284 311.406 7.60433C311.406 8.304 311.001 9.15578 310.048 9.15578ZM314.469 33.2894C313.475 33.2894 313.211 32.7418 312.441 31.0078C311.629 29.2435 310.524 27.3979 309.165 26.3332L309.317 26.1101C314.803 27.8441 315.99 30.0851 315.99 31.525C315.99 32.0016 315.696 33.2894 314.479 33.2894H314.469Z" fill="#1C5A19"/>
<path d="M333.185 16.1426C331.745 16.1426 331.33 16.9436 330.377 18.7182C329.839 19.6714 329.2 20.2392 328.207 20.2392C327.101 20.2392 326.158 19.4787 326.158 18.7587C326.158 18.1098 326.381 17.9577 328.399 16.6394C328.967 16.2643 329.464 15.9499 330.458 13.8509C331.411 11.9141 331.786 10.5452 332.06 9.59202C331.107 9.67314 329.586 9.09515 329.474 9.02417C327.314 8.2231 325.945 5.91114 325.945 4.78558C325.945 4.48138 325.986 4.29885 326.168 3.95409C327.426 5.72862 329.089 7.3916 331.259 7.3916C331.796 7.3916 332.252 7.32062 332.587 7.28006C332.628 6.90488 332.668 6.56011 332.668 6.18492C332.668 4.52194 331.34 4.29885 330.427 4.18731C331.38 3.08203 332.79 3.08203 333.084 3.08203C333.652 3.08203 335.731 3.27469 335.731 5.08979C335.731 5.61707 335.538 6.25591 335.467 6.64123C336.035 6.44857 336.907 6.22549 337.515 6.22549C338.621 6.22549 338.955 6.90488 338.955 7.20908C338.955 8.31436 336.826 8.81123 334.443 9.33852C334.027 10.3627 332.891 13.1107 331.259 15.9296C331.979 15.5849 332.82 15.3922 333.611 15.3922C334.514 15.3922 335.538 15.7775 336.41 16.7003C336.866 17.1972 337.059 17.6129 337.363 18.3633C342.748 14.3579 343.326 13.9422 344.532 12.7253C345.06 12.1879 345.293 11.7722 345.638 11.0928C345.942 11.0928 346.205 11.1333 346.591 11.0928C347.006 11.0522 348.751 10.7886 349.095 10.7886C350.16 10.7886 351.336 11.1333 351.336 12.6138C351.336 14.2464 349.927 14.2869 347.392 14.3985C346.408 14.439 345.262 14.8244 344.279 15.2807C341.551 16.5482 339.422 18.1402 337.718 19.3976C337.941 21.1011 338.093 23.3421 338.093 23.9911C338.093 25.8873 337.789 27.2866 336.319 27.2866C335.68 27.2866 335.112 26.9824 335.112 25.8062C335.112 25.1977 335.457 21.9022 335.457 21.1822C333.297 23.0379 331.502 24.9037 331.502 26.7898C331.502 28.6758 334.128 29.1828 336.775 29.1828C337.647 29.1828 339.726 29.1017 341.967 28.7265C342.535 28.6454 344.887 28.1587 345.425 28.1587C346.672 28.1587 348 28.8381 348 29.9028C348 30.5112 347.625 30.856 347.047 31.0081C345.414 31.5049 342.119 31.5759 340.334 31.5759C335.751 31.5759 329.251 31.2312 329.251 27.6314C329.251 24.8631 332.374 22.3179 335.487 19.7829C335.406 18.414 335.264 16.1831 333.206 16.1831L333.185 16.1426Z" fill="#1C5A19"/>
<path d="M363.586 8.62928C365.259 8.62928 366.466 9.9982 366.466 11.215C366.466 11.4482 366.202 13.0808 366.162 13.4256C366.05 14.1861 365.898 15.3624 365.898 16.7313C365.898 22.8458 369.731 24.5494 370.867 24.5494C371.739 24.5494 371.891 24.2451 373.26 21.5479C374.852 18.4754 376.403 16.0417 378.837 13.8008C379.973 12.7361 382.102 11.0933 384.607 11.0933C388.48 11.0933 392.009 14.8249 392.009 17.8568C392.009 19.2967 391.025 20.1688 389.92 20.1688C388.217 20.1688 387.983 18.4957 387.912 18.0089C387.608 15.8491 387.456 14.8553 386.625 13.5675C386.016 12.6144 385.185 11.9755 383.927 11.9755C379.719 11.9755 374.933 20.8583 374.933 23.586C374.933 24.0423 375.014 24.1944 375.43 25.0665C375.511 25.2896 375.582 25.4417 375.582 25.7459C375.582 26.6484 374.558 27.4089 372.702 27.4089C366.253 27.4089 363.637 20.3209 363.262 16.711C363.181 15.9099 362.957 12.5332 362.805 11.8539C362.542 10.4748 361.741 10.2517 361.254 10.0996C361.477 9.6433 362.014 8.61914 363.606 8.61914L363.586 8.62928Z" fill="#1C5A19"/>
<path d="M414.063 15.403C412.501 15.8188 409.043 16.772 407.634 16.772C406.072 16.772 404.926 15.7072 404.926 14.5208C404.926 13.4967 405.646 11.6715 406.336 10.5763C407.015 9.47103 407.249 9.09585 407.249 8.75108C407.249 8.44688 407.249 8.33533 405.809 7.72692C404.065 7.00697 402.554 6.28702 402.432 4.11702C403.76 4.26912 404.288 4.34011 406.407 5.33384C407.279 5.74959 407.999 6.01323 408.952 6.28702C409.601 6.43912 410.706 6.70277 410.706 7.53426C410.706 8.14267 410.514 8.25421 408.648 9.43047C407.015 10.4546 406.103 12.3103 406.103 13.304C406.103 13.5271 406.184 14.5918 407.735 14.5918C408.648 14.5918 411.69 14.095 415.797 12.7666C414.205 9.38991 412.339 6.23632 411.396 5.0195C410.179 3.38693 409.155 2.93062 408.394 2.55543C408.891 2.25123 409.652 1.79492 410.788 1.79492C411.923 1.79492 412.917 2.51487 414.205 5.3237C414.884 6.80417 415.188 7.56468 416.182 9.08571C417.663 11.3977 418.312 11.4382 419.184 11.5193C421.029 11.6715 422.246 11.783 422.246 13.1519C422.246 14.1051 421.567 14.2166 418.697 14.3687C419.001 15.0177 420.512 18.2119 420.857 18.9724C421.729 20.9396 422.439 22.5721 422.439 23.4138C422.439 24.5191 421.648 25.888 420.025 25.888C419.802 25.888 419.417 25.8069 418.585 25.5432C417.298 25.0869 415.28 24.4379 412.167 24.4379C409.662 24.4379 408.1 24.8537 406.691 25.6548C405.596 26.3037 404.643 27.5205 404.643 28.2811C404.643 29.9947 409.125 30.1063 410.727 30.1063C411.254 30.1063 413.951 29.9947 414.56 29.9947C414.975 29.9947 415.847 30.1063 415.847 30.9074C415.847 32.2357 412.805 32.8441 410.564 32.8441C407.482 32.8441 401.945 31.6679 401.945 28.5548C401.945 26.2327 405.322 24.9754 407.249 24.4075C410.372 23.5355 413.485 23.3428 416.446 23.2617C418.727 23.2211 419.336 23.1907 419.336 22.1665C419.336 20.7266 417.51 16.5489 416.72 14.6831C415.959 14.8757 415.766 14.9163 414.063 15.403V15.403Z" fill="#1C5A19"/>
<path d="M452.636 28.1908C454.755 27.1565 456.347 24.8547 456.347 22.5427C456.347 19.3181 453.396 16.4383 450.182 16.4383C447.566 16.4383 444.25 17.9594 443.043 19.5818C442.445 20.3727 440.011 24.0536 439.443 24.733C438.946 25.3718 438.227 26.2439 437.436 26.2439C437.02 26.2439 436.219 25.9397 436.219 24.5809C436.219 22.6137 437.283 21.7721 439.524 20.0685C441.918 18.2534 445.933 13.3456 449.087 9.37063C450.263 7.8496 450.76 7.21077 450.76 6.67334C450.76 6.52124 450.719 6.52124 450.415 6.52124C450.111 6.52124 447.15 7.35273 444.899 8.54927C443.418 9.39091 443.266 9.46189 442.739 9.46189C441.573 9.46189 439.9 7.97128 439.9 6.67334C439.9 6.06493 440.204 5.64918 440.427 5.26386C440.924 5.6796 441.603 6.24745 443.155 6.24745C444.828 6.24745 447.606 5.44638 448.671 5.10161C450.831 4.38166 451.48 4.14844 452.271 4.14844C453.295 4.14844 455.445 5.10161 455.445 6.08521C455.445 6.4604 455.252 6.7646 454.42 7.34259C453.629 7.86988 452.798 8.43773 448.174 13.2949C447.109 14.4306 445.892 15.8096 444.747 17.0974C446.227 16.3775 448.357 15.4243 451.581 15.4243C457.026 15.4243 459.186 20.2409 459.186 23.0497C459.186 28.1299 454.045 31.0098 448.012 31.0098C446.379 31.0098 441.867 30.7461 441.867 27.7142C441.867 25.1386 444.554 24.4592 446.268 24.4592C447.069 24.4592 449.158 24.6113 450.182 26.2337C450.831 27.2275 450.75 28.1806 450.719 28.9412C451.216 28.7485 451.895 28.5558 452.646 28.1806L452.636 28.1908ZM447.819 27.8866C447.363 26.8219 446.369 26.1323 445.274 26.1323C444.321 26.1323 443.489 26.7813 443.489 27.4708C443.489 27.9677 443.986 29.6003 448.204 29.4177C448.164 29.073 448.093 28.5356 447.829 27.8967L447.819 27.8866Z" fill="#1C5A19"/>
</svg>
