<svg width="227" height="88" viewBox="0 0 227 88" fill="none" xmlns="http://www.w3.org/2000/svg">
<path d="M13.4205 18.567V28.5558C13.4205 30.8056 12.3306 31.4655 9.79087 32.0454C8.99096 30.1956 8.12106 29.6457 7.36114 29.1757L7.40114 28.8858C8.31104 29.0358 8.78098 29.1058 9.4709 29.1058C10.7808 29.1058 11.0007 28.8558 11.0707 28.1259C11.2207 26.3861 11.2207 25.5462 11.2207 18.567H10.1308C10.2008 19.5868 8.97096 20.0168 8.43102 20.0168C7.7411 20.0168 7.67111 19.5768 7.67111 19.1469C7.67111 18.7469 7.7811 17.0771 7.7811 16.7172C7.82109 15.3773 7.89108 13.4075 7.89108 11.4478C7.89108 8.57809 7.85109 7.81818 7.60112 6.17836L10.2908 7.26824H10.9807C11.1607 5.95839 11.3107 4.1086 11.3807 2.79875H6.0013C6.0013 15.3373 6.0013 23.6164 1.14185 29.8357L0.921875 29.7257C3.50158 24.3163 3.57157 14.2075 3.57157 9.73796C3.57157 7.23824 3.53158 2.75875 3.13162 0.439017L6.03129 1.92885H14.3304L15.1303 0.908964C15.3502 0.618997 15.5302 0.439017 15.6702 0.439017C15.8502 0.439017 16.0002 0.589 16.3601 0.838972L17.81 1.85886C17.9199 1.92885 18.1699 2.14882 18.1699 2.39879C18.1699 2.75875 17.84 2.79875 17.59 2.79875H14.2904C13.8904 3.48867 12.5106 5.99839 11.6007 7.26824H14.5803L15.2003 6.68831C15.4502 6.46833 15.6302 6.28835 15.8502 6.28835C16.0302 6.28835 16.2501 6.43834 16.3901 6.54832L17.52 7.30824C17.74 7.45822 17.9599 7.70819 17.9599 7.95816C17.9599 8.35812 17.67 8.5381 16.98 8.97805V11.5578C16.98 12.6476 17.13 17.4471 17.13 18.387C17.13 19.4769 16.4001 19.8368 15.5002 19.8368C14.7703 19.8368 14.7403 19.3269 14.8103 18.567H13.4205V18.567ZM9.89086 22.6765C10.2508 22.8565 10.4408 22.9665 10.4408 23.2564C10.4408 23.6164 10.1508 23.7964 9.24093 23.9863C7.50113 27.006 6.81121 28.0559 4.2615 30.4556L4.04152 30.3856C4.98141 28.7158 7.24116 23.8864 7.24116 21.3066L9.89086 22.6865V22.6765ZM10.0708 8.13814V12.4277H14.8403V8.13814H10.0708ZM14.8403 17.6971V13.2976H10.0708V17.6971H14.8403ZM14.2604 21.2966C15.9702 21.9466 17.9599 23.2564 17.9599 24.9262C17.9599 25.8361 17.38 26.4161 16.6201 26.4161C15.6002 26.4161 15.4602 25.5762 15.2402 24.4963C15.2003 24.3463 14.8803 22.6465 14.1504 21.4766L14.2604 21.2966V21.2966ZM24.1092 27.326C24.2892 27.4359 24.3992 27.6559 24.3992 27.8359C24.3992 28.3458 23.9993 28.3458 23.0894 28.3458C19.2398 30.2356 17.39 30.9955 14.6303 31.6555L14.5203 31.4055C17.64 29.7657 20.3697 27.5159 21.6695 25.5562L24.1092 27.336V27.326ZM26.239 2.65876C25.4391 4.03861 25.2191 4.36857 23.2193 7.23824H28.0588L28.9987 6.25836C29.2187 5.99839 29.4286 5.8984 29.6186 5.8984C29.7686 5.8984 30.0186 6.04838 30.1985 6.18836L31.5784 7.27824C31.7284 7.42822 31.9384 7.6382 31.9384 7.88817C31.9384 8.35812 31.6084 8.5081 30.9185 8.82806C30.8785 10.5379 30.8085 12.3177 30.8785 17.0771C30.8785 18.097 31.0984 23.0364 31.0984 24.1663C31.0984 25.4362 30.0086 25.7961 29.2087 25.7961C28.4787 25.7961 28.4088 25.2162 28.4088 24.7463H21.7195C21.7895 25.8361 20.5996 26.1961 20.0097 26.1961C19.3598 26.1961 19.2098 25.7261 19.2098 25.2462C19.2098 24.9962 19.2498 24.4463 19.2498 24.0863C19.2898 21.8666 19.3598 17.877 19.3598 15.8373C19.3598 8.81806 19.2498 7.76818 18.9198 5.8484L21.9695 7.22825H22.5494C22.8094 5.8484 22.9494 3.55866 22.9894 2.68876C21.1696 2.75875 20.4797 2.86874 19.8697 2.97873L19.1398 1.52889C22.1195 1.77886 24.2992 1.77886 24.6992 1.77886H29.6386L30.7285 0.509009C31.0884 0.109055 31.1284 0.0390625 31.3084 0.0390625C31.4884 0.0390625 31.5284 0.0790579 31.9583 0.439017L33.5582 1.70887C33.7081 1.81886 33.9181 2.03884 33.9181 2.24881C33.9181 2.64877 33.5882 2.64877 33.3782 2.64877H26.219L26.239 2.65876ZM21.7295 8.10814V12.5776H28.4188V8.10814H21.7295ZM21.7295 13.4475V17.997H28.4188V13.4475H21.7295ZM21.7295 18.8569V23.8764H28.4188V18.8569H21.7295ZM26.019 26.1661C31.6484 27.256 33.4282 29.1058 33.4282 30.5956C33.4282 31.3255 32.9582 31.9054 32.2283 31.9054C31.4984 31.9054 31.2884 31.6855 29.7586 29.6157C29.4686 29.2157 27.9388 27.6159 26.019 26.4161V26.1661V26.1661Z" fill="#1C5A19"/>
<path d="M43.6982 7.24047C45.348 7.24047 46.5379 8.59031 46.5379 9.79018C46.5379 10.0202 46.2779 11.63 46.2379 11.9699C46.1279 12.7198 45.9779 13.8797 45.9779 15.2296C45.9779 21.2589 49.7575 22.9387 50.8774 22.9387C51.7373 22.9387 51.8872 22.6387 53.2371 19.979C54.8069 16.9494 56.3367 14.5496 58.7365 12.3399C59.8563 11.29 61.9561 9.67019 64.4258 9.67019C68.2454 9.67019 71.725 13.3498 71.725 16.3394C71.725 17.7593 70.7551 18.6192 69.6652 18.6192C67.9854 18.6192 67.7554 16.9694 67.6854 16.4894C67.3855 14.3597 67.2355 13.3798 66.4156 12.1099C65.8157 11.17 64.9958 10.5401 63.7559 10.5401C59.6064 10.5401 54.8869 19.2991 54.8869 21.9888C54.8869 22.4387 54.9669 22.5887 55.3768 23.4486C55.4568 23.6686 55.5268 23.8186 55.5268 24.1186C55.5268 25.0084 54.5169 25.7584 52.6872 25.7584C46.3279 25.7584 43.7482 18.7692 43.3782 15.2096C43.2982 14.4197 43.0782 11.09 42.9283 10.4201C42.6683 9.06026 41.8784 8.84029 41.3984 8.6903C41.6184 8.24035 42.1484 7.23047 43.7182 7.23047L43.6982 7.24047Z" fill="#1C5A19"/>
<path d="M87.991 8.94813C87.991 8.57818 88.071 5.35854 88.071 5.05858C88.071 2.35888 87.1011 2.02892 85.7912 1.72896C86.0512 1.38899 86.5012 0.789062 87.881 0.789062C89.3808 0.789062 91.7006 1.68896 91.7006 3.40876C91.7006 3.85871 91.4806 4.8286 91.3306 5.31855C90.9906 6.54841 90.4707 8.83815 90.4707 11.0079C90.4707 13.6676 91.9305 14.4175 92.7204 14.4175C93.2104 14.4175 93.5804 14.1875 94.6702 13.6276C96.77 12.5077 97.5499 12.3877 98.0798 12.3877C99.4697 12.3877 100.48 13.4376 100.48 14.4075C100.48 15.9073 98.5698 16.0173 97.9399 16.0173C93.9703 16.1273 91.0206 16.1673 87.3511 18.787C86.1512 19.6469 83.9514 21.4767 83.9514 24.1264C83.9514 27.2261 87.531 27.786 90.7907 27.786C94.4203 27.786 96.67 27.2661 98.6498 26.8161C98.7298 26.8161 99.3597 26.6661 99.8096 26.6661C101.119 26.6661 102.019 27.896 102.019 28.6059C102.019 29.3558 101.119 29.6858 100.04 29.9158C98.1698 30.3257 95.8501 30.3257 93.7103 30.3257C87.0511 30.3257 84.6214 29.5758 82.8616 27.896C81.6217 26.6961 81.5117 25.3963 81.5117 24.7163C81.5117 22.1766 83.1915 20.2668 84.3914 19.187C87.0011 16.8672 89.5808 15.8573 91.6106 15.0774C89.2508 14.1075 88.021 12.6077 88.021 8.93814L87.991 8.94813Z" fill="#1C5A19"/>
<path d="M122.21 8.94813C122.21 8.57818 122.29 5.35854 122.29 5.05858C122.29 2.35888 121.32 2.02892 120.01 1.72896C120.27 1.38899 120.72 0.789062 122.1 0.789062C123.6 0.789062 125.919 1.68896 125.919 3.40876C125.919 3.85871 125.699 4.8286 125.549 5.31855C125.209 6.54841 124.689 8.83815 124.689 11.0079C124.689 13.6676 126.149 14.4175 126.939 14.4175C127.429 14.4175 127.799 14.1875 128.889 13.6276C130.989 12.5077 131.769 12.3877 132.299 12.3877C133.688 12.3877 134.698 13.4376 134.698 14.4075C134.698 15.9073 132.789 16.0173 132.159 16.0173C128.189 16.1273 125.239 16.1673 121.57 18.787C120.37 19.6469 118.17 21.4767 118.17 24.1264C118.17 27.2261 121.75 27.786 125.009 27.786C128.639 27.786 130.889 27.2661 132.869 26.8161C132.949 26.8161 133.578 26.6661 134.028 26.6661C135.338 26.6661 136.238 27.896 136.238 28.6059C136.238 29.3558 135.338 29.6858 134.258 29.9158C132.389 30.3257 130.069 30.3257 127.929 30.3257C121.27 30.3257 118.84 29.5758 117.08 27.896C115.84 26.6961 115.73 25.3963 115.73 24.7163C115.73 22.1766 117.41 20.2668 118.61 19.187C121.22 16.8672 123.8 15.8573 125.829 15.0774C123.47 14.1075 122.24 12.6077 122.24 8.93814L122.21 8.94813Z" fill="#1C5A19"/>
<path d="M161.283 14.4784C163.352 15.6382 165.372 16.7981 167.472 19.0778C168.072 19.7478 170.062 22.1075 170.062 24.8072C170.062 28.0268 167.212 31.6864 162.073 31.6864C158.303 31.6864 155.383 29.5666 155.383 25.5971C155.383 24.2072 155.643 22.8974 155.773 22.0775C154.043 21.2576 149.894 19.2278 149.894 16.1682C149.894 15.6082 149.934 14.5983 152.134 12.4586C153.744 10.8888 153.894 10.7388 153.894 10.4388C153.894 9.98886 151.654 7.77912 147.574 6.91921C148.964 5.79934 150.234 5.79934 150.414 5.79934C153.064 5.79934 157.193 8.67901 157.193 10.4388C157.193 11.4887 156.213 11.5987 155.673 11.6387C152.844 11.8986 151.304 14.7083 151.304 15.6082C151.304 17.368 154.463 19.3878 156.353 19.6878C156.803 18.0779 157.223 16.4281 157.773 14.6683C159.253 9.79889 159.843 7.44915 159.843 5.75935C159.843 2.16975 157.883 0.819907 157.103 0.299966C157.483 0.149983 157.963 0 158.513 0C161.193 0 163.042 4.07954 163.042 6.20929C163.042 7.51915 162.443 8.74901 160.973 11.8587C159.803 14.2484 158.963 16.7581 158.223 19.3378C158.483 19.5978 159.773 20.6077 160.033 20.8376C160.293 21.0976 160.673 21.4776 160.673 22.0375C160.673 22.3775 160.443 23.0874 159.443 23.0874C158.783 23.0874 157.963 22.8674 157.563 22.7174C157.493 23.1274 157.453 23.6573 157.453 24.3272C157.453 28.1768 159.523 30.0566 161.733 30.0566C164.132 30.0566 166.752 27.5169 166.752 24.2972C166.752 21.7175 165.292 19.5778 164.652 18.6879C164.312 18.2379 163.122 16.5581 161.203 14.6483L161.283 14.4984V14.4784Z" fill="#1C5A19"/>
<path d="M190.53 15.44C189.89 17.5297 187.951 24.049 187.951 25.2789C187.951 25.4988 187.951 25.9488 188.36 26.8487C188.51 27.2186 188.77 27.8586 188.77 28.2385C188.77 29.3584 187.571 29.4384 187.381 29.4384C185.551 29.4384 182.871 26.1488 182.871 21.1293C182.871 17.5397 183.701 13.5302 184.641 9.34068C184.791 8.63076 185.301 6.501 185.301 5.90107C185.301 4.67121 184.261 4.03128 183.511 3.69132C183.851 3.32136 184.231 2.94141 185.051 2.94141C186.361 2.94141 188.65 4.51123 188.65 5.78108C188.65 6.15104 188.46 6.75097 188.24 7.28091C186.821 10.5405 184.841 15.9199 184.841 20.5194C184.841 23.739 185.741 24.039 185.921 24.039C186.261 24.039 186.781 22.8791 186.861 22.6492C187.501 21.2693 189.14 17.5197 190.27 15.28L190.53 15.43V15.44ZM200.019 6.05105C204.059 6.05105 204.509 6.05105 205.409 6.27103C206.118 6.46101 207.878 7.02094 207.878 8.52077C207.878 9.49066 207.278 9.53066 205.519 9.64064C200.319 10.0106 196.57 15.63 196.57 18.5096C196.57 19.9295 197.619 23.749 203.159 23.899C206.748 24.009 207.128 24.009 207.608 24.049C209.518 24.269 209.518 25.5488 209.518 25.7288C209.518 26.9987 207.718 27.0787 206.258 27.0787C197.729 27.0787 194.93 22.7792 194.93 19.8595C194.93 16.6398 196.979 14.3201 200.079 10.7705C200.339 10.4706 201.239 9.46067 201.239 8.97072C201.239 8.56077 201.019 8.52077 199.139 8.18081C195.74 7.54088 195.37 6.16104 195.03 5.00117C195.88 5.56111 196.63 6.05105 199.999 6.05105H200.019Z" fill="#1C5A19"/>
<path d="M224.298 31.2849C223.138 31.2849 222.848 30.335 222.478 29.1451C222.258 28.3852 221.208 24.9656 217.719 22.1659L217.829 21.8359C220.368 22.6758 221.858 23.2558 223.608 24.7056C224.228 25.2455 226.078 26.9954 226.078 29.1751C226.078 30.195 225.428 31.2849 224.298 31.2849V31.2849Z" fill="#1C5A19"/>
<path d="M22.3996 61.0424L23.5295 59.7725C23.7095 59.5925 23.8594 59.4126 24.0394 59.4126C24.1494 59.4126 24.3994 59.5925 24.5094 59.6625L26.3592 61.0424C26.6091 61.2224 26.8291 61.5523 26.8291 61.7323C26.8291 62.0923 26.4991 62.3522 25.5592 62.8622C25.4892 64.712 25.4892 65.5119 25.4892 68.6415C25.4892 70.5313 25.4892 77.0306 25.6392 80.2602C25.6792 81.2401 25.8192 84.8697 25.8192 85.8196C25.8192 87.1594 24.7993 87.6694 23.9994 87.6694C23.0895 87.6694 22.7996 87.1994 22.7996 86.4695C22.7996 86.2495 22.8695 85.4196 22.8695 85.2296H6.99135C7.06134 86.8694 6.81137 87.9893 5.06157 87.9893C4.30166 87.9893 4.01169 87.4794 4.01169 86.7195C4.01169 86.3595 4.05169 85.5896 4.05169 85.1596C4.27166 79.3503 4.27166 76.1207 4.27166 71.3912C4.27166 68.1916 4.27166 62.1223 3.76172 59.2926L7.32131 61.0324H12.0808C12.9507 57.6528 13.3206 56.2329 13.1007 54.4531L17.0202 56.3829C17.4202 56.5629 17.4902 56.8229 17.4902 56.9328C17.4902 57.3728 16.6902 57.5828 15.9603 57.6628C14.6905 59.0426 13.6006 60.2825 12.9107 61.0424H22.3896H22.3996ZM6.96136 61.9123V68.9315H22.9095V61.9123H6.96136V61.9123ZM6.96136 69.8014V76.4506H22.9095V69.8014H6.96136V69.8014ZM6.96136 77.3205V84.3697H22.9095V77.3205H6.96136V77.3205Z" fill="#1C5A19"/>
<path d="M65.7452 79.3913C58.736 75.5018 56.9862 69.8324 56.5162 67.1127C55.8263 70.8523 54.3365 76.7816 44.2376 79.6513L44.1976 79.4313C52.8767 75.0318 53.8965 68.6026 54.2265 66.7128H48.4472C44.5976 76.3817 38.9282 79.3913 36.3885 80.7012L36.3185 80.4512C39.8081 77.4316 42.4978 73.762 43.9477 71.0723C45.8375 67.5827 47.2573 63.2932 47.5073 61.5934H42.8178C41.108 65.7029 39.2882 68.8925 36.0586 72.4921L35.8086 72.3421C40.1681 64.603 41.478 57.7338 41.478 56.5339C41.478 56.174 41.438 55.844 41.408 55.5141L45.0075 56.6039C45.1875 56.6439 45.4075 56.7839 45.4075 57.0739C45.4075 57.3638 44.9676 57.6538 44.0977 58.1238C43.5877 59.5736 43.4077 60.0535 43.1478 60.7035H47.5073L48.5571 59.6836C48.7371 59.5336 48.8471 59.3936 49.0671 59.3936C49.2471 59.3936 49.467 59.5736 49.647 59.7236L51.2868 61.2534C51.4368 61.4034 51.5068 61.5034 51.5068 61.6934C51.5068 62.1333 50.5669 62.4933 50.087 62.6732C49.977 62.8532 49.2471 64.783 48.8171 65.8329H54.3765C54.5265 64.593 54.5965 63.1132 54.5965 61.9133C54.5965 60.1735 54.4165 57.0839 54.0165 55.4141L57.6461 56.5039C57.8261 56.5439 58.1561 56.7239 58.1561 57.0139C58.1561 57.4138 57.9061 57.5538 57.1062 57.9538C56.9962 58.8637 56.9262 61.4434 56.9262 62.5333C56.9262 63.8431 56.8162 64.863 56.7062 65.8429H62.8455L64.5153 64.0231C64.7353 63.7731 64.9153 63.5831 65.0953 63.5831C65.2452 63.5831 65.4552 63.6931 65.7452 63.9831L67.705 65.7229C67.8849 65.8729 68.0349 66.1228 68.0349 66.3028C68.0349 66.6628 67.705 66.7028 67.485 66.7028H57.0562C57.7861 69.6424 60.4758 74.8819 69.1948 76.2917V76.5817C67.195 77.0516 66.6151 78.0015 65.7452 79.3813V79.3913ZM38.6383 87.7804C37.6984 87.7804 36.9985 87.2005 36.9985 86.4005C36.9985 85.4906 37.5784 85.0907 38.5983 84.2208C40.3781 82.691 40.778 80.9112 40.848 79.9013H41.098C41.388 80.8812 41.6779 81.971 41.6779 83.2109C41.6779 85.2107 40.948 87.7904 38.6283 87.7904L38.6383 87.7804ZM42.3479 72.7721C41.218 72.7721 40.898 71.6422 40.5281 70.1924C40.1981 68.9525 39.8781 68.6326 39.5082 68.2626L39.6582 68.0826C41.8779 68.7026 43.3977 69.4625 43.3977 71.5022C43.3977 72.4421 42.7078 72.7721 42.3479 72.7721V72.7721ZM44.6376 67.7627C43.7977 67.7627 43.6877 67.3627 43.1478 65.8729C42.8978 65.183 42.5278 64.383 41.9179 63.8731L42.0679 63.5831C43.7377 64.0531 45.8075 64.633 45.8075 66.5228C45.8075 66.8528 45.6575 67.7627 44.6476 67.7627H44.6376ZM48.2672 87.3504C47.4273 87.3504 46.7374 86.8405 46.7374 85.9306C46.7374 85.3507 47.0973 84.4808 47.6772 83.0209C47.8272 82.621 48.0072 81.6811 48.0072 81.1311C48.0072 80.8812 47.9672 80.6912 47.8972 80.2912H48.1472C48.6171 80.9412 50.037 82.8309 50.037 85.0907C50.037 85.7406 49.707 87.3404 48.2572 87.3404L48.2672 87.3504ZM57.1662 87.1005C55.7163 87.1005 55.6363 85.7906 55.6063 84.4108C55.6063 84.0108 55.5364 82.011 54.6964 80.4912L54.9864 80.3812C56.8062 81.6911 58.726 83.0709 58.726 85.1807C58.726 85.9806 58.286 87.1105 57.1662 87.1105V87.1005ZM62.1056 63.4831C61.0857 63.4831 60.7958 62.5733 60.5058 61.7433C60.1758 60.8035 59.4559 59.3436 58.506 58.5437L58.616 58.2837C60.6158 58.8337 63.4455 60.1035 63.4455 61.9533C63.4455 62.6432 63.0455 63.4831 62.1056 63.4831V63.4831ZM66.4651 87.2804C65.4852 87.2804 65.2252 86.7405 64.4653 85.0307C63.6654 83.2909 62.5756 81.4711 61.2357 80.4212L61.3857 80.2012C66.7951 81.9111 67.9649 84.1208 67.9649 85.5406C67.9649 86.0106 67.675 87.2804 66.4751 87.2804H66.4651Z" fill="#1C5A19"/>
<path d="M84.9204 70.3824C83.5006 70.3824 83.0906 71.1724 82.1507 72.9222C81.6208 73.862 80.9909 74.422 80.011 74.422C78.9211 74.422 77.9912 73.6721 77.9912 72.9622C77.9912 72.3222 78.2112 72.1722 80.201 70.8724C80.7609 70.5024 81.2509 70.1925 82.2307 68.1227C83.1706 66.2129 83.5406 64.8631 83.8106 63.9232C82.8707 64.0032 81.3708 63.4332 81.2609 63.3632C79.1311 62.5733 77.7812 60.2936 77.7812 59.1837C77.7812 58.8837 77.8212 58.7038 78.0012 58.3638C79.2411 60.1136 80.8809 61.7534 83.0207 61.7534C83.5506 61.7534 84.0005 61.6834 84.3305 61.6434C84.3705 61.2735 84.4105 60.9335 84.4105 60.5636C84.4105 58.9237 83.1006 58.7038 82.2007 58.5938C83.1406 57.5039 84.5305 57.5039 84.8205 57.5039C85.3804 57.5039 87.4301 57.6939 87.4301 59.4837C87.4301 60.0036 87.2402 60.6336 87.1702 61.0135C87.7301 60.8235 88.59 60.6036 89.1899 60.6036C90.2798 60.6036 90.6098 61.2735 90.6098 61.5734C90.6098 62.6633 88.51 63.1533 86.1603 63.6732C85.7503 64.6831 84.6305 67.3928 83.0207 70.1725C83.7306 69.8325 84.5605 69.6425 85.3404 69.6425C86.2303 69.6425 87.2402 70.0225 88.1001 70.9324C88.55 71.4223 88.74 71.8323 89.04 72.5722C94.3494 68.6226 94.9193 68.2127 96.1092 67.0128C96.6291 66.4829 96.8591 66.0729 97.199 65.403C97.499 65.403 97.759 65.443 98.1389 65.403C98.5489 65.363 100.269 65.103 100.609 65.103C101.659 65.103 102.818 65.443 102.818 66.9028C102.818 68.5127 101.429 68.5527 98.9288 68.6626C97.959 68.7026 96.8291 69.0826 95.8592 69.5325C93.1695 70.7824 91.0697 72.3522 89.3899 73.5921C89.6099 75.2719 89.7599 77.4816 89.7599 78.1216C89.7599 79.9914 89.4599 81.3712 88.0101 81.3712C87.3802 81.3712 86.8202 81.0712 86.8202 79.9114C86.8202 79.3114 87.1602 76.0618 87.1602 75.3519C85.0304 77.1817 83.2606 79.0215 83.2606 80.8813C83.2606 82.741 85.8503 83.241 88.46 83.241C89.3199 83.241 91.3697 83.161 93.5794 82.791C94.1394 82.711 96.4591 82.2311 96.9891 82.2311C98.2189 82.2311 99.5288 82.901 99.5288 83.9509C99.5288 84.5508 99.1588 84.8908 98.5889 85.0408C96.9791 85.5307 93.7294 85.6007 91.9696 85.6007C87.4501 85.6007 81.0409 85.2608 81.0409 81.7112C81.0409 78.9815 84.1205 76.4718 87.1902 73.972C87.1102 72.6222 86.9702 70.4224 84.9404 70.4224L84.9204 70.3824Z" fill="#1C5A19"/>
<path d="M114.897 62.9631C116.547 62.9631 117.737 64.313 117.737 65.5128C117.737 65.7428 117.477 67.3526 117.437 67.6926C117.327 68.4425 117.177 69.6024 117.177 70.9522C117.177 76.9815 120.957 78.6613 122.077 78.6613C122.936 78.6613 123.086 78.3614 124.436 75.7017C126.006 72.672 127.536 70.2723 129.936 68.0625C131.056 67.0127 133.155 65.3929 135.625 65.3929C139.445 65.3929 142.924 69.0724 142.924 72.0621C142.924 73.4819 141.954 74.3418 140.864 74.3418C139.185 74.3418 138.955 72.692 138.885 72.2121C138.585 70.0823 138.435 69.1024 137.615 67.8326C137.015 66.8927 136.195 66.2627 134.955 66.2627C130.806 66.2627 126.086 75.0218 126.086 77.7114C126.086 78.1614 126.166 78.3114 126.576 79.1713C126.656 79.3913 126.726 79.5412 126.726 79.8412C126.726 80.7311 125.716 81.481 123.886 81.481C117.527 81.481 114.947 74.4918 114.577 70.9322C114.497 70.1423 114.277 66.8127 114.127 66.1428C113.868 64.7829 113.078 64.5629 112.598 64.413C112.818 63.963 113.348 62.9531 114.917 62.9531L114.897 62.9631Z" fill="#1C5A19"/>
<path d="M164.675 69.6411C163.135 70.0511 159.726 70.991 158.336 70.991C156.796 70.991 155.666 69.9411 155.666 68.7712C155.666 67.7613 156.376 65.9615 157.056 64.8817C157.726 63.7918 157.956 63.4218 157.956 63.0819C157.956 62.7819 157.956 62.6719 156.536 62.072C154.816 61.3621 153.326 60.6522 153.207 58.5124C154.516 58.6624 155.036 58.7324 157.126 59.7123C157.986 60.1222 158.696 60.3822 159.636 60.6522C160.276 60.8021 161.366 61.0621 161.366 61.882C161.366 62.4819 161.176 62.5919 159.336 63.7518C157.726 64.7617 156.826 66.5915 156.826 67.5714C156.826 67.7913 156.906 68.8412 158.436 68.8412C159.336 68.8412 162.335 68.3513 166.385 67.0414C164.815 63.7118 162.975 60.6022 162.045 59.4023C160.846 57.7925 159.836 57.3425 159.086 56.9726C159.576 56.6726 160.326 56.2227 161.446 56.2227C162.565 56.2227 163.545 56.9326 164.815 59.7023C165.485 61.1621 165.785 61.912 166.765 63.4118C168.225 65.6916 168.865 65.7316 169.725 65.8116C171.544 65.9615 172.744 66.0715 172.744 67.4214C172.744 68.3613 172.074 68.4713 169.245 68.6212C169.545 69.2612 171.034 72.4108 171.374 73.1607C172.234 75.1005 172.934 76.7103 172.934 77.5402C172.934 78.6301 172.154 79.98 170.555 79.98C170.335 79.98 169.955 79.9 169.135 79.64C167.865 79.19 165.875 78.5501 162.805 78.5501C160.336 78.5501 158.796 78.9601 157.406 79.75C156.326 80.3899 155.386 81.5898 155.386 82.3397C155.386 84.0295 159.806 84.1395 161.386 84.1395C161.906 84.1395 164.565 84.0295 165.165 84.0295C165.575 84.0295 166.435 84.1395 166.435 84.9294C166.435 86.2392 163.435 86.8392 161.226 86.8392C158.186 86.8392 152.727 85.6793 152.727 82.6097C152.727 80.3199 156.056 79.0801 157.956 78.5201C161.036 77.6602 164.105 77.4702 167.025 77.3903C169.275 77.3503 169.875 77.3203 169.875 76.3104C169.875 74.8905 168.075 70.771 167.295 68.9312C166.545 69.1212 166.355 69.1612 164.675 69.6411V69.6411Z" fill="#1C5A19"/>
<path d="M202.708 82.2503C204.797 81.2304 206.367 78.9607 206.367 76.6809C206.367 73.5013 203.458 70.6616 200.288 70.6616C197.708 70.6616 194.439 72.1614 193.249 73.7612C192.659 74.5411 190.259 78.1707 189.699 78.8407C189.209 79.4706 188.499 80.3305 187.719 80.3305C187.309 80.3305 186.52 80.0305 186.52 78.6907C186.52 76.7509 187.569 75.921 189.779 74.2412C192.139 72.4514 196.098 67.6119 199.208 63.6924C200.368 62.1926 200.858 61.5626 200.858 61.0327C200.858 60.8827 200.818 60.8827 200.518 60.8827C200.218 60.8827 197.298 61.7026 195.079 62.8825C193.619 63.7124 193.469 63.7824 192.949 63.7824C191.799 63.7824 190.149 62.3125 190.149 61.0327C190.149 60.4328 190.449 60.0228 190.669 59.6428C191.159 60.0528 191.829 60.6127 193.359 60.6127C195.009 60.6127 197.748 59.8228 198.798 59.4829C200.928 58.7729 201.568 58.543 202.348 58.543C203.358 58.543 205.477 59.4829 205.477 60.4528C205.477 60.8227 205.287 61.1227 204.468 61.6926C203.688 62.2126 202.868 62.7725 198.308 67.5619C197.258 68.6818 196.058 70.0417 194.929 71.3115C196.388 70.6016 198.488 69.6617 201.668 69.6617C207.037 69.6617 209.167 74.4112 209.167 77.1809C209.167 82.1903 204.098 85.03 198.148 85.03C196.538 85.03 192.089 84.77 192.089 81.7803C192.089 79.2406 194.739 78.5707 196.428 78.5707C197.218 78.5707 199.278 78.7207 200.288 80.3205C200.928 81.3004 200.848 82.2403 200.818 82.9902C201.308 82.8002 201.978 82.6102 202.718 82.2403L202.708 82.2503ZM197.958 81.9503C197.508 80.9004 196.528 80.2205 195.449 80.2205C194.509 80.2205 193.689 80.8604 193.689 81.5404C193.689 82.0303 194.179 83.6401 198.338 83.4601C198.298 83.1202 198.228 82.5902 197.968 81.9603L197.958 81.9503Z" fill="#1C5A19"/>
</svg>
