<svg width="17" height="18" viewBox="0 0 17 18" fill="none" xmlns="http://www.w3.org/2000/svg">
<path d="M5.84466 15.1781C5.76299 15.0964 5.72216 14.9943 5.72216 14.8718C5.72216 14.7493 5.76299 14.6473 5.84466 14.5656L11.4272 8.98308L5.84466 3.40058C5.76299 3.31892 5.71924 3.21975 5.71341 3.10308C5.70757 2.98642 5.75132 2.88142 5.84466 2.78808C5.93799 2.70642 6.04591 2.66267 6.16841 2.65683C6.29091 2.651 6.39299 2.68892 6.47466 2.77058L12.3372 8.63308C12.3955 8.69142 12.4363 8.74975 12.4597 8.80808C12.483 8.86642 12.4947 8.92475 12.4947 8.98308C12.4947 9.05308 12.483 9.11433 12.4597 9.16683C12.4363 9.21933 12.3955 9.26892 12.3372 9.31558L6.47466 15.1956C6.39299 15.2773 6.29382 15.3181 6.17716 15.3181C6.06049 15.3181 5.94966 15.2714 5.84466 15.1781Z" fill="white"/>
</svg>
